<svg width="155" height="208" viewBox="0 0 155 208" fill="none" xmlns="http://www.w3.org/2000/svg">
<path d="M76.7923 207.754C122.041 207.754 154.403 182.868 154.305 148.439C154.403 123.356 138.468 105.453 108.86 101.715V100.141C131.386 96.1083 146.928 80.1729 146.829 57.5486C146.928 25.7763 119.09 0.791186 77.3825 0.791186C36.0685 0.791186 4.98473 24.9893 4.39453 59.8111H45.2166C45.7085 44.4659 59.7749 34.5309 77.1857 34.5309C94.3999 34.5309 105.909 44.9577 105.81 60.1062C105.909 75.9432 92.4325 86.6651 73.0543 86.6651H54.2663V117.946H73.0543C95.8754 117.946 110.139 129.356 110.04 145.587C110.139 161.62 96.3672 172.637 76.8906 172.637C58.1026 172.637 44.0362 162.801 43.2493 148.046H0.361506C1.05007 183.261 32.5273 207.754 76.7923 207.754Z" fill="url(#paint0_linear)"/>
<defs>
<linearGradient id="paint0_linear" x1="83.5" y1="17" x2="83.5" y2="285.5" gradientUnits="userSpaceOnUse">
<stop stop-color="#F4F5F7"/>
<stop offset="1" stop-color="#F4F5F7" stop-opacity="0"/>
</linearGradient>
</defs>
</svg>
