<svg width="58" height="58" viewBox="0 0 58 58" fill="none" xmlns="http://www.w3.org/2000/svg">
<circle cx="29" cy="29" r="28.5" transform="rotate(90 29 29)" stroke="white"/>
<path d="M17 29.4307L36 29.4307" stroke="white" stroke-linecap="round"/>
<path d="M17 29.4307L36 29.4307" stroke="url(#paint0_linear)" stroke-linecap="round"/>
<path d="M39.5904 29.0596C39.8097 29.2581 39.8097 29.6025 39.5904 29.801L35.5855 33.4259C35.2641 33.7168 34.75 33.4887 34.75 33.0552L34.75 25.8054C34.75 25.3719 35.2641 25.1438 35.5855 25.4347L39.5904 29.0596Z" fill="white"/>
<path d="M39.5904 29.0596C39.8097 29.2581 39.8097 29.6025 39.5904 29.801L35.5855 33.4259C35.2641 33.7168 34.75 33.4887 34.75 33.0552L34.75 25.8054C34.75 25.3719 35.2641 25.1438 35.5855 25.4347L39.5904 29.0596Z" fill="url(#paint1_linear)"/>
<defs>
<linearGradient id="paint0_linear" x1="26.5" y1="29.4307" x2="26.5" y2="30.4307" gradientUnits="userSpaceOnUse">
<stop stop-color="white"/>
<stop offset="1" stop-color="white" stop-opacity="0"/>
</linearGradient>
<linearGradient id="paint1_linear" x1="40" y1="29.4303" x2="33" y2="29.4303" gradientUnits="userSpaceOnUse">
<stop stop-color="white"/>
<stop offset="1" stop-color="white" stop-opacity="0"/>
</linearGradient>
</defs>
</svg>
