<svg width="20" height="20" viewBox="0 0 20 20" fill="none" xmlns="http://www.w3.org/2000/svg">
<mask id="mask0" mask-type="alpha" maskUnits="userSpaceOnUse" x="0" y="0" width="20" height="20">
<path fill-rule="evenodd" clip-rule="evenodd" d="M17.4998 10.0002C17.4998 5.85803 14.142 2.50016 9.99984 2.50016C5.8577 2.50016 2.49984 5.85803 2.49984 10.0002C2.49984 14.1423 5.8577 17.5002 9.99984 17.5002C14.142 17.5002 17.4998 14.1423 17.4998 10.0002ZM9.99984 0.833496C15.0624 0.833496 19.1665 4.93755 19.1665 10.0002C19.1665 15.0628 15.0624 19.1668 9.99984 19.1668C4.93723 19.1668 0.833171 15.0628 0.833171 10.0002C0.833172 4.93755 4.93723 0.833495 9.99984 0.833496Z" fill="#061938"/>
<path d="M13.9224 10.5894C14.2479 10.264 14.2479 9.73634 13.9224 9.41091C13.597 9.08547 13.0694 9.08547 12.7439 9.41091L10.8332 11.3217L10.8332 6.66683C10.8332 6.20659 10.4601 5.8335 9.99984 5.8335C9.5396 5.8335 9.1665 6.20659 9.1665 6.66683L9.1665 11.3217L7.25576 9.41091C6.93032 9.08547 6.40269 9.08547 6.07725 9.41091C5.75181 9.73634 5.75181 10.264 6.07725 10.5894L9.41058 13.9228C9.73602 14.2482 10.2637 14.2482 10.5891 13.9228L13.9224 10.5894Z" fill="#061938"/>
</mask>
<g mask="url(#mask0)">
<rect x="20" width="20" height="20" transform="rotate(90 20 0)" fill="#2C5DE5"/>
</g>
</svg>
