<svg width="43" height="43" viewBox="0 0 43 43" fill="none" xmlns="http://www.w3.org/2000/svg">
<path d="M41.9868 15.2744C41.9893 19.5256 41.011 23.72 39.1279 27.5314" stroke="#2C5DE5" stroke-width="1.78263" stroke-miterlimit="10" stroke-linecap="round"/>
<path d="M42.0003 15.2611V9.02188C42.0003 8.5491 41.8125 8.09568 41.4782 7.76138C41.1439 7.42707 40.6905 7.23926 40.2177 7.23926C39.7449 7.23926 39.2915 7.42707 38.9572 7.76138C38.6229 8.09568 38.4351 8.5491 38.4351 9.02188V11.6958" stroke="#2C5DE5" stroke-width="1.78263" stroke-miterlimit="10" stroke-linecap="round"/>
<path d="M38.4349 11.6954V4.56485C38.4349 4.09207 38.2471 3.63865 37.9128 3.30434C37.5785 2.97004 37.125 2.78223 36.6523 2.78223C36.1795 2.78223 35.7261 2.97004 35.3917 3.30434C35.0574 3.63865 34.8696 4.09207 34.8696 4.56485V11.6954" stroke="#2C5DE5" stroke-width="1.78263" stroke-miterlimit="10" stroke-linecap="round"/>
<path d="M34.8695 11.6958V2.78263C34.8695 2.30984 34.6816 1.85643 34.3473 1.52212C34.013 1.18781 33.5596 1 33.0868 1C32.614 1 32.1606 1.18781 31.8263 1.52212C31.492 1.85643 31.3042 2.30984 31.3042 2.78263V11.6958" stroke="#2C5DE5" stroke-width="1.78263" stroke-miterlimit="10" stroke-linecap="round"/>
<path d="M31.3043 11.6954V4.56485C31.3043 4.09207 31.1165 3.63865 30.7821 3.30434C30.4478 2.97004 29.9944 2.78223 29.5216 2.78223C29.0489 2.78223 28.5954 2.97004 28.2611 3.30434C27.9268 3.63865 27.739 4.09207 27.739 4.56485V11.6954" stroke="#2C5DE5" stroke-width="1.78263" stroke-miterlimit="10" stroke-linecap="round"/>
<path d="M27.7391 15.2619V11.6967C27.7391 11.2239 27.5513 10.7705 27.217 10.4362C26.8827 10.1019 26.4292 9.91406 25.9565 9.91406C25.4837 9.91406 25.0303 10.1019 24.6959 10.4362C24.3616 10.7705 24.1738 11.2239 24.1738 11.6967V15.9576C24.1738 17.2342 24.6305 18.4687 25.4613 19.4379L29.2615 23.8715" stroke="#2C5DE5" stroke-width="1.78263" stroke-miterlimit="10" stroke-linecap="round"/>
<path d="M1.01368 27.6242C1.01114 23.3611 1.995 19.1551 3.88829 15.3354" stroke="#2C5DE5" stroke-width="1.78263" stroke-miterlimit="10" stroke-linecap="round"/>
<path d="M1 27.6377V33.8769C1 34.3497 1.18781 34.8031 1.52212 35.1374C1.85643 35.4717 2.30984 35.6595 2.78263 35.6595C3.25541 35.6595 3.70883 35.4717 4.04313 35.1374C4.37744 34.8031 4.56525 34.3497 4.56525 33.8769V31.2029" stroke="#2C5DE5" stroke-width="1.78263" stroke-miterlimit="10" stroke-linecap="round"/>
<path d="M4.56519 31.2021V38.3327C4.56519 38.8054 4.753 39.2589 5.08731 39.5932C5.42161 39.9275 5.87503 40.1153 6.34781 40.1153C6.82059 40.1153 7.27401 39.9275 7.60832 39.5932C7.94263 39.2589 8.13044 38.8054 8.13044 38.3327V31.2021" stroke="#2C5DE5" stroke-width="1.78263" stroke-miterlimit="10" stroke-linecap="round"/>
<path d="M8.13037 31.2021V40.1153C8.13037 40.5881 8.31818 41.0415 8.65249 41.3758C8.9868 41.7101 9.44022 41.8979 9.913 41.8979C10.3858 41.8979 10.8392 41.7101 11.1735 41.3758C11.5078 41.0415 11.6956 40.5881 11.6956 40.1153V31.2021" stroke="#2C5DE5" stroke-width="1.78263" stroke-miterlimit="10" stroke-linecap="round"/>
<path d="M11.6956 31.2021V38.3327C11.6956 38.8054 11.8834 39.2589 12.2177 39.5932C12.552 39.9275 13.0054 40.1153 13.4782 40.1153C13.951 40.1153 14.4044 39.9275 14.7387 39.5932C15.073 39.2589 15.2608 38.8054 15.2608 38.3327V31.2021" stroke="#2C5DE5" stroke-width="1.78263" stroke-miterlimit="10" stroke-linecap="round"/>
<path d="M15.2611 27.6374V31.2027C15.2611 31.6754 15.4489 32.1289 15.7832 32.4632C16.1175 32.7975 16.5709 32.9853 17.0437 32.9853C17.5165 32.9853 17.9699 32.7975 18.3042 32.4632C18.6385 32.1289 18.8263 31.6754 18.8263 31.2027V26.9418C18.8263 25.6652 18.3697 24.4307 17.5389 23.4614L13.6968 18.979" stroke="#2C5DE5" stroke-width="1.78263" stroke-miterlimit="10" stroke-linecap="round"/>
<path d="M15.333 1.01368C19.6298 1.01107 23.868 2.01055 27.7109 3.93272" stroke="#2C5DE5" stroke-width="1.78263" stroke-miterlimit="10" stroke-linecap="round"/>
<path d="M15.3194 1H9.08023C8.60745 1 8.15403 1.18781 7.81973 1.52212C7.48542 1.85643 7.29761 2.30984 7.29761 2.78263C7.29761 3.25541 7.48542 3.70883 7.81973 4.04313C8.15403 4.37744 8.60745 4.56525 9.08023 4.56525H11.7542" stroke="#2C5DE5" stroke-width="1.78263" stroke-miterlimit="10" stroke-linecap="round"/>
<path d="M11.754 4.56445H4.62345C4.15066 4.56445 3.69725 4.75226 3.36294 5.08657C3.02863 5.42088 2.84082 5.8743 2.84082 6.34708C2.84082 6.81986 3.02863 7.27328 3.36294 7.60759C3.69725 7.9419 4.15066 8.12971 4.62345 8.12971H11.754" stroke="#2C5DE5" stroke-width="1.78263" stroke-miterlimit="10" stroke-linecap="round"/>
<path d="M11.7541 8.13037H2.84098C2.36819 8.13037 1.91478 8.31818 1.58047 8.65249C1.24616 8.9868 1.05835 9.44022 1.05835 9.913C1.05835 10.3858 1.24616 10.8392 1.58047 11.1735C1.91478 11.5078 2.36819 11.6956 2.84098 11.6956H11.7541" stroke="#2C5DE5" stroke-width="1.78263" stroke-miterlimit="10" stroke-linecap="round"/>
<path d="M11.754 11.6963H4.62345C4.15066 11.6963 3.69725 11.8841 3.36294 12.2184C3.02863 12.5527 2.84082 13.0061 2.84082 13.4789C2.84082 13.9517 3.02863 14.4051 3.36294 14.7394C3.69725 15.0737 4.15066 15.2615 4.62345 15.2615H11.754" stroke="#2C5DE5" stroke-width="1.78263" stroke-miterlimit="10" stroke-linecap="round"/>
<path d="M15.3191 15.2614H11.7538C11.281 15.2614 10.8276 15.4492 10.4933 15.7835C10.159 16.1178 9.97119 16.5712 9.97119 17.044C9.97119 17.5168 10.159 17.9702 10.4933 18.3045C10.8276 18.6388 11.281 18.8266 11.7538 18.8266H16.0147C17.2913 18.8266 18.5258 18.37 19.4951 17.5392L23.9932 13.6836" stroke="#2C5DE5" stroke-width="1.78263" stroke-miterlimit="10" stroke-linecap="round"/>
<path d="M27.6816 41.985C23.3382 41.9877 19.0554 40.9664 15.1807 39.0039" stroke="#2C5DE5" stroke-width="1.78263" stroke-miterlimit="10" stroke-linecap="round"/>
<path d="M27.6958 41.9993H33.935C34.4078 41.9993 34.8612 41.8115 35.1955 41.4772C35.5298 41.1429 35.7176 40.6895 35.7176 40.2167C35.7176 39.7439 35.5298 39.2905 35.1955 38.9562C34.8612 38.6219 34.4078 38.4341 33.935 38.4341H31.2611" stroke="#2C5DE5" stroke-width="1.78263" stroke-miterlimit="10" stroke-linecap="round"/>
<path d="M31.2607 38.4349H38.3913C38.864 38.4349 39.3174 38.2471 39.6518 37.9128C39.9861 37.5785 40.1739 37.125 40.1739 36.6523C40.1739 36.1795 39.9861 35.7261 39.6518 35.3917C39.3174 35.0574 38.864 34.8696 38.3913 34.8696H31.2607" stroke="#2C5DE5" stroke-width="1.78263" stroke-miterlimit="10" stroke-linecap="round"/>
<path d="M31.2607 34.869H40.1739C40.6467 34.869 41.1001 34.6812 41.4344 34.3468C41.7687 34.0125 41.9565 33.5591 41.9565 33.0863C41.9565 32.6136 41.7687 32.1601 41.4344 31.8258C41.1001 31.4915 40.6467 31.3037 40.1739 31.3037H31.2607" stroke="#2C5DE5" stroke-width="1.78263" stroke-miterlimit="10" stroke-linecap="round"/>
<path d="M31.2607 31.3035H38.3913C38.864 31.3035 39.3174 31.1157 39.6518 30.7814C39.9861 30.4471 40.1739 29.9937 40.1739 29.5209C40.1739 29.0481 39.9861 28.5947 39.6518 28.2604C39.3174 27.9261 38.864 27.7383 38.3913 27.7383H31.2607" stroke="#2C5DE5" stroke-width="1.78263" stroke-miterlimit="10" stroke-linecap="round"/>
<path d="M27.6952 27.7386H31.2604C31.7332 27.7386 32.1866 27.5508 32.521 27.2165C32.8553 26.8822 33.0431 26.4287 33.0431 25.956C33.0431 25.4832 32.8553 25.0298 32.521 24.6955C32.1866 24.3612 31.7332 24.1733 31.2604 24.1733H26.9996C25.723 24.1733 24.4885 24.63 23.5192 25.4608L19.0542 29.288" stroke="#2C5DE5" stroke-width="1.78263" stroke-miterlimit="10" stroke-linecap="round"/>
</svg>
