<svg width="43" height="43" viewBox="0 0 43 43" fill="none" xmlns="http://www.w3.org/2000/svg">
<g clip-path="url(#clip0)">
<path d="M37.1362 10.75H30.2953C29.7568 10.75 29.318 10.3112 29.318 9.77273V4.88636C29.318 4.34691 28.8802 3.90909 28.3408 3.90909C27.8013 3.90909 27.3635 4.34691 27.3635 4.88636V9.77273C27.3635 11.3891 28.6789 12.7045 30.2953 12.7045H36.159V30.2955V40.0682C36.159 40.6067 35.7202 41.0455 35.1817 41.0455H7.81805C7.27957 41.0455 6.84078 40.6067 6.84078 40.0682V2.93182C6.84078 2.39334 7.27957 1.95455 7.81805 1.95455H28.9506L36.4922 8.55309C36.8997 8.90882 37.5164 8.8668 37.8711 8.46123C38.2269 8.05468 38.1858 7.43802 37.7793 7.0823L29.9611 0.241386C29.7832 0.086 29.5545 0 29.318 0H7.81805C6.20164 0 4.88623 1.31541 4.88623 2.93182V40.0682C4.88623 41.6846 6.20164 43 7.81805 43H35.1817C36.7981 43 38.1135 41.6846 38.1135 40.0682V30.2955V11.7273C38.1135 11.1878 37.6757 10.75 37.1362 10.75Z" fill="white"/>
<path d="M37.1362 10.75H30.2953C29.7568 10.75 29.318 10.3112 29.318 9.77273V4.88636C29.318 4.34691 28.8802 3.90909 28.3408 3.90909C27.8013 3.90909 27.3635 4.34691 27.3635 4.88636V9.77273C27.3635 11.3891 28.6789 12.7045 30.2953 12.7045H36.159V30.2955V40.0682C36.159 40.6067 35.7202 41.0455 35.1817 41.0455H7.81805C7.27957 41.0455 6.84078 40.6067 6.84078 40.0682V2.93182C6.84078 2.39334 7.27957 1.95455 7.81805 1.95455H28.9506L36.4922 8.55309C36.8997 8.90882 37.5164 8.8668 37.8711 8.46123C38.2269 8.05468 38.1858 7.43802 37.7793 7.0823L29.9611 0.241386C29.7832 0.086 29.5545 0 29.318 0H7.81805C6.20164 0 4.88623 1.31541 4.88623 2.93182V40.0682C4.88623 41.6846 6.20164 43 7.81805 43H35.1817C36.7981 43 38.1135 41.6846 38.1135 40.0682V30.2955V11.7273C38.1135 11.1878 37.6757 10.75 37.1362 10.75Z" fill="url(#paint0_linear)"/>
<path d="M31.2727 31.2727C31.2727 30.7332 30.8349 30.2954 30.2955 30.2954H11.7273C11.1878 30.2954 10.75 30.7332 10.75 31.2727C10.75 31.8121 11.1878 32.25 11.7273 32.25H30.2955C30.8349 32.25 31.2727 31.8121 31.2727 31.2727Z" fill="white"/>
<path d="M31.2727 31.2727C31.2727 30.7332 30.8349 30.2954 30.2955 30.2954H11.7273C11.1878 30.2954 10.75 30.7332 10.75 31.2727C10.75 31.8121 11.1878 32.25 11.7273 32.25H30.2955C30.8349 32.25 31.2727 31.8121 31.2727 31.2727Z" fill="url(#paint1_linear)"/>
<path d="M11.7273 16.6137H21.5C22.0395 16.6137 22.4773 16.1759 22.4773 15.6365C22.4773 15.097 22.0395 14.6592 21.5 14.6592H11.7273C11.1878 14.6592 10.75 15.097 10.75 15.6365C10.75 16.1759 11.1878 16.6137 11.7273 16.6137Z" fill="white"/>
<path d="M11.7273 16.6137H21.5C22.0395 16.6137 22.4773 16.1759 22.4773 15.6365C22.4773 15.097 22.0395 14.6592 21.5 14.6592H11.7273C11.1878 14.6592 10.75 15.097 10.75 15.6365C10.75 16.1759 11.1878 16.6137 11.7273 16.6137Z" fill="url(#paint2_linear)"/>
<path d="M31.2724 18.5684H19.5451C19.0057 18.5684 18.5679 19.0062 18.5679 19.5456C18.5679 20.0851 19.0057 20.5229 19.5451 20.5229H31.2724C31.8119 20.5229 32.2497 20.0851 32.2497 19.5456C32.2497 19.0062 31.8119 18.5684 31.2724 18.5684Z" fill="white"/>
<path d="M31.2724 18.5684H19.5451C19.0057 18.5684 18.5679 19.0062 18.5679 19.5456C18.5679 20.0851 19.0057 20.5229 19.5451 20.5229H31.2724C31.8119 20.5229 32.2497 20.0851 32.2497 19.5456C32.2497 19.0062 31.8119 18.5684 31.2724 18.5684Z" fill="url(#paint3_linear)"/>
<path d="M31.2725 14.6592H25.4089C24.8695 14.6592 24.4316 15.097 24.4316 15.6365C24.4316 16.1759 24.8695 16.6137 25.4089 16.6137H31.2725C31.812 16.6137 32.2498 16.1759 32.2498 15.6365C32.2498 15.097 31.812 14.6592 31.2725 14.6592Z" fill="white"/>
<path d="M31.2725 14.6592H25.4089C24.8695 14.6592 24.4316 15.097 24.4316 15.6365C24.4316 16.1759 24.8695 16.6137 25.4089 16.6137H31.2725C31.812 16.6137 32.2498 16.1759 32.2498 15.6365C32.2498 15.097 31.812 14.6592 31.2725 14.6592Z" fill="url(#paint4_linear)"/>
<path d="M11.7273 24.4316H20.5227C21.0622 24.4316 21.5 23.9938 21.5 23.4543C21.5 22.9149 21.0622 22.4771 20.5227 22.4771H11.7273C11.1878 22.4771 10.75 22.9149 10.75 23.4543C10.75 23.9938 11.1878 24.4316 11.7273 24.4316Z" fill="white"/>
<path d="M11.7273 24.4316H20.5227C21.0622 24.4316 21.5 23.9938 21.5 23.4543C21.5 22.9149 21.0622 22.4771 20.5227 22.4771H11.7273C11.1878 22.4771 10.75 22.9149 10.75 23.4543C10.75 23.9938 11.1878 24.4316 11.7273 24.4316Z" fill="url(#paint5_linear)"/>
<path d="M11.7273 28.3408H15.6364C16.1758 28.3408 16.6136 27.903 16.6136 27.3635C16.6136 26.824 16.1758 26.3862 15.6364 26.3862H11.7273C11.1878 26.3862 10.75 26.824 10.75 27.3635C10.75 27.903 11.1878 28.3408 11.7273 28.3408Z" fill="white"/>
<path d="M11.7273 28.3408H15.6364C16.1758 28.3408 16.6136 27.903 16.6136 27.3635C16.6136 26.824 16.1758 26.3862 15.6364 26.3862H11.7273C11.1878 26.3862 10.75 26.824 10.75 27.3635C10.75 27.903 11.1878 28.3408 11.7273 28.3408Z" fill="url(#paint6_linear)"/>
<path d="M11.7273 20.5229H15.6364C16.1758 20.5229 16.6136 20.0851 16.6136 19.5456C16.6136 19.0062 16.1758 18.5684 15.6364 18.5684H11.7273C11.1878 18.5684 10.75 19.0062 10.75 19.5456C10.75 20.0851 11.1878 20.5229 11.7273 20.5229Z" fill="white"/>
<path d="M11.7273 20.5229H15.6364C16.1758 20.5229 16.6136 20.0851 16.6136 19.5456C16.6136 19.0062 16.1758 18.5684 15.6364 18.5684H11.7273C11.1878 18.5684 10.75 19.0062 10.75 19.5456C10.75 20.0851 11.1878 20.5229 11.7273 20.5229Z" fill="url(#paint7_linear)"/>
<path d="M32.25 23.4543C32.25 22.9149 31.8122 22.4771 31.2728 22.4771H24.4319C23.8924 22.4771 23.4546 22.9149 23.4546 23.4543C23.4546 23.9938 23.8924 24.4316 24.4319 24.4316H31.2728C31.8122 24.4316 32.25 23.9938 32.25 23.4543Z" fill="white"/>
<path d="M32.25 23.4543C32.25 22.9149 31.8122 22.4771 31.2728 22.4771H24.4319C23.8924 22.4771 23.4546 22.9149 23.4546 23.4543C23.4546 23.9938 23.8924 24.4316 24.4319 24.4316H31.2728C31.8122 24.4316 32.25 23.9938 32.25 23.4543Z" fill="url(#paint8_linear)"/>
<path d="M18.5679 27.3635C18.5679 27.903 19.0057 28.3408 19.5451 28.3408H27.3633C27.9028 28.3408 28.3406 27.903 28.3406 27.3635C28.3406 26.824 27.9028 26.3862 27.3633 26.3862H19.5451C19.0057 26.3862 18.5679 26.824 18.5679 27.3635Z" fill="white"/>
<path d="M18.5679 27.3635C18.5679 27.903 19.0057 28.3408 19.5451 28.3408H27.3633C27.9028 28.3408 28.3406 27.903 28.3406 27.3635C28.3406 26.824 27.9028 26.3862 27.3633 26.3862H19.5451C19.0057 26.3862 18.5679 26.824 18.5679 27.3635Z" fill="url(#paint9_linear)"/>
<path d="M11.7273 34.2046C11.1878 34.2046 10.75 34.6424 10.75 35.1819C10.75 35.7213 11.1878 36.1591 11.7273 36.1591H21.5C22.0395 36.1591 22.4773 35.7213 22.4773 35.1819C22.4773 34.6424 22.0395 34.2046 21.5 34.2046H11.7273Z" fill="white"/>
<path d="M11.7273 34.2046C11.1878 34.2046 10.75 34.6424 10.75 35.1819C10.75 35.7213 11.1878 36.1591 11.7273 36.1591H21.5C22.0395 36.1591 22.4773 35.7213 22.4773 35.1819C22.4773 34.6424 22.0395 34.2046 21.5 34.2046H11.7273Z" fill="url(#paint10_linear)"/>
</g>
<defs>
<linearGradient id="paint0_linear" x1="21.4999" y1="0" x2="21.4999" y2="43" gradientUnits="userSpaceOnUse">
<stop stop-color="white"/>
<stop offset="1" stop-color="white" stop-opacity="0"/>
</linearGradient>
<linearGradient id="paint1_linear" x1="21.0114" y1="30.2954" x2="21.0114" y2="32.25" gradientUnits="userSpaceOnUse">
<stop stop-color="white"/>
<stop offset="1" stop-color="white" stop-opacity="0"/>
</linearGradient>
<linearGradient id="paint2_linear" x1="16.6136" y1="14.6592" x2="16.6136" y2="16.6137" gradientUnits="userSpaceOnUse">
<stop stop-color="white"/>
<stop offset="1" stop-color="white" stop-opacity="0"/>
</linearGradient>
<linearGradient id="paint3_linear" x1="25.4088" y1="18.5684" x2="25.4088" y2="20.5229" gradientUnits="userSpaceOnUse">
<stop stop-color="white"/>
<stop offset="1" stop-color="white" stop-opacity="0"/>
</linearGradient>
<linearGradient id="paint4_linear" x1="28.3407" y1="14.6592" x2="28.3407" y2="16.6137" gradientUnits="userSpaceOnUse">
<stop stop-color="white"/>
<stop offset="1" stop-color="white" stop-opacity="0"/>
</linearGradient>
<linearGradient id="paint5_linear" x1="16.125" y1="22.4771" x2="16.125" y2="24.4316" gradientUnits="userSpaceOnUse">
<stop stop-color="white"/>
<stop offset="1" stop-color="white" stop-opacity="0"/>
</linearGradient>
<linearGradient id="paint6_linear" x1="13.6818" y1="26.3862" x2="13.6818" y2="28.3408" gradientUnits="userSpaceOnUse">
<stop stop-color="white"/>
<stop offset="1" stop-color="white" stop-opacity="0"/>
</linearGradient>
<linearGradient id="paint7_linear" x1="13.6818" y1="18.5684" x2="13.6818" y2="20.5229" gradientUnits="userSpaceOnUse">
<stop stop-color="white"/>
<stop offset="1" stop-color="white" stop-opacity="0"/>
</linearGradient>
<linearGradient id="paint8_linear" x1="27.8523" y1="22.4771" x2="27.8523" y2="24.4316" gradientUnits="userSpaceOnUse">
<stop stop-color="white"/>
<stop offset="1" stop-color="white" stop-opacity="0"/>
</linearGradient>
<linearGradient id="paint9_linear" x1="23.4542" y1="26.3862" x2="23.4542" y2="28.3408" gradientUnits="userSpaceOnUse">
<stop stop-color="white"/>
<stop offset="1" stop-color="white" stop-opacity="0"/>
</linearGradient>
<linearGradient id="paint10_linear" x1="16.6136" y1="34.2046" x2="16.6136" y2="36.1591" gradientUnits="userSpaceOnUse">
<stop stop-color="white"/>
<stop offset="1" stop-color="white" stop-opacity="0"/>
</linearGradient>
<clipPath id="clip0">
<rect width="43" height="43" fill="white"/>
</clipPath>
</defs>
</svg>
