<svg width="35" height="43" viewBox="0 0 35 43" fill="none" xmlns="http://www.w3.org/2000/svg">
<path d="M33.1362 10.75H26.2953C25.7568 10.75 25.318 10.3112 25.318 9.77273V4.88636C25.318 4.34691 24.8802 3.90909 24.3408 3.90909C23.8013 3.90909 23.3635 4.34691 23.3635 4.88636V9.77273C23.3635 11.3891 24.6789 12.7045 26.2953 12.7045H32.159V30.2955V40.0682C32.159 40.6067 31.7202 41.0455 31.1817 41.0455H3.81805C3.27957 41.0455 2.84078 40.6067 2.84078 40.0682V2.93182C2.84078 2.39334 3.27957 1.95455 3.81805 1.95455H24.9506L32.4922 8.55309C32.8997 8.90882 33.5164 8.8668 33.8711 8.46123C34.2269 8.05468 34.1858 7.43802 33.7793 7.0823L25.9611 0.241386C25.7832 0.086 25.5545 0 25.318 0H3.81805C2.20164 0 0.88623 1.31541 0.88623 2.93182V40.0682C0.88623 41.6846 2.20164 43 3.81805 43H31.1817C32.7981 43 34.1135 41.6846 34.1135 40.0682V30.2955V11.7273C34.1135 11.1878 33.6757 10.75 33.1362 10.75Z" fill="white"/>
<path d="M33.1362 10.75H26.2953C25.7568 10.75 25.318 10.3112 25.318 9.77273V4.88636C25.318 4.34691 24.8802 3.90909 24.3408 3.90909C23.8013 3.90909 23.3635 4.34691 23.3635 4.88636V9.77273C23.3635 11.3891 24.6789 12.7045 26.2953 12.7045H32.159V30.2955V40.0682C32.159 40.6067 31.7202 41.0455 31.1817 41.0455H3.81805C3.27957 41.0455 2.84078 40.6067 2.84078 40.0682V2.93182C2.84078 2.39334 3.27957 1.95455 3.81805 1.95455H24.9506L32.4922 8.55309C32.8997 8.90882 33.5164 8.8668 33.8711 8.46123C34.2269 8.05468 34.1858 7.43802 33.7793 7.0823L25.9611 0.241386C25.7832 0.086 25.5545 0 25.318 0H3.81805C2.20164 0 0.88623 1.31541 0.88623 2.93182V40.0682C0.88623 41.6846 2.20164 43 3.81805 43H31.1817C32.7981 43 34.1135 41.6846 34.1135 40.0682V30.2955V11.7273C34.1135 11.1878 33.6757 10.75 33.1362 10.75Z" fill="url(#paint0_linear)"/>
<defs>
<linearGradient id="paint0_linear" x1="17.4999" y1="0" x2="17.4999" y2="43" gradientUnits="userSpaceOnUse">
<stop stop-color="white"/>
<stop offset="1" stop-color="white" stop-opacity="0"/>
</linearGradient>
</defs>
</svg>
