<svg width="43" height="35" viewBox="0 0 43 35" fill="none" xmlns="http://www.w3.org/2000/svg">
<path d="M5.86377 9.68182V18.4773C5.86377 19.0636 6.25468 19.4545 6.84104 19.4545C7.42741 19.4545 7.81832 19.0636 7.81832 18.4773V9.68182C7.81832 9.09545 8.20922 8.70455 8.79559 8.70455H34.2047C34.791 8.70455 35.182 9.09545 35.182 9.68182V18.4773C35.182 19.0636 35.5729 19.4545 36.1592 19.4545C36.7456 19.4545 37.1365 19.0636 37.1365 18.4773V9.68182C37.1365 8.02045 35.866 6.75 34.2047 6.75H8.79559C7.13422 6.75 5.86377 8.02045 5.86377 9.68182Z" fill="white"/>
<path d="M5.86377 9.68182V18.4773C5.86377 19.0636 6.25468 19.4545 6.84104 19.4545C7.42741 19.4545 7.81832 19.0636 7.81832 18.4773V9.68182C7.81832 9.09545 8.20922 8.70455 8.79559 8.70455H34.2047C34.791 8.70455 35.182 9.09545 35.182 9.68182V18.4773C35.182 19.0636 35.5729 19.4545 36.1592 19.4545C36.7456 19.4545 37.1365 19.0636 37.1365 18.4773V9.68182C37.1365 8.02045 35.866 6.75 34.2047 6.75H8.79559C7.13422 6.75 5.86377 8.02045 5.86377 9.68182Z" fill="url(#paint0_linear)"/>
<path d="M31.7614 10.8544L23.0637 16.3271C22.0864 16.9135 20.9137 16.9135 19.9364 16.3271L11.2387 10.8544C10.75 10.5612 10.1637 10.6589 9.87048 11.1475C9.5773 11.6362 9.67503 12.2225 10.1637 12.5157L18.8614 17.9885C19.6432 18.4771 20.6205 18.7703 21.5 18.7703C22.3796 18.7703 23.3568 18.4771 24.1387 17.9885L32.8364 12.5157C33.325 12.2225 33.4228 11.6362 33.1296 11.1475C32.7387 10.6589 32.1523 10.5612 31.7614 10.8544Z" fill="white"/>
<path d="M31.7614 10.8544L23.0637 16.3271C22.0864 16.9135 20.9137 16.9135 19.9364 16.3271L11.2387 10.8544C10.75 10.5612 10.1637 10.6589 9.87048 11.1475C9.5773 11.6362 9.67503 12.2225 10.1637 12.5157L18.8614 17.9885C19.6432 18.4771 20.6205 18.7703 21.5 18.7703C22.3796 18.7703 23.3568 18.4771 24.1387 17.9885L32.8364 12.5157C33.325 12.2225 33.4228 11.6362 33.1296 11.1475C32.7387 10.6589 32.1523 10.5612 31.7614 10.8544Z" fill="url(#paint1_linear)"/>
<path d="M9.77268 5.77242H33.2272C33.8136 5.77242 34.2045 5.38151 34.2045 4.79514C34.2045 4.20878 33.8136 3.81787 33.2272 3.81787H9.77268C9.18632 3.81787 8.79541 4.20878 8.79541 4.79514C8.79541 5.38151 9.18632 5.77242 9.77268 5.77242Z" fill="white"/>
<path d="M9.77268 5.77242H33.2272C33.8136 5.77242 34.2045 5.38151 34.2045 4.79514C34.2045 4.20878 33.8136 3.81787 33.2272 3.81787H9.77268C9.18632 3.81787 8.79541 4.20878 8.79541 4.79514C8.79541 5.38151 9.18632 5.77242 9.77268 5.77242Z" fill="url(#paint2_linear)"/>
<path d="M11.7273 2.84078H31.2727C31.8591 2.84078 32.25 2.44987 32.25 1.8635C32.25 1.27714 31.8591 0.88623 31.2727 0.88623H11.7273C11.1409 0.88623 10.75 1.27714 10.75 1.8635C10.75 2.44987 11.1409 2.84078 11.7273 2.84078Z" fill="white"/>
<path d="M11.7273 2.84078H31.2727C31.8591 2.84078 32.25 2.44987 32.25 1.8635C32.25 1.27714 31.8591 0.88623 31.2727 0.88623H11.7273C11.1409 0.88623 10.75 1.27714 10.75 1.8635C10.75 2.44987 11.1409 2.84078 11.7273 2.84078Z" fill="url(#paint3_linear)"/>
<path d="M42.0227 25.3179C41.4364 25.3179 41.0455 25.7088 41.0455 26.2951V31.1815C41.0455 31.7679 40.6545 32.1588 40.0682 32.1588H2.93182C2.34545 32.1588 1.95455 31.7679 1.95455 31.1815V6.74969C1.95455 6.16333 2.34545 5.77242 2.93182 5.77242H5.86364C6.45 5.77242 6.84091 5.38151 6.84091 4.79514C6.84091 4.20878 6.45 3.81787 5.86364 3.81787H2.93182C1.27045 3.81787 0 5.08833 0 6.74969V31.1815C0 32.8429 1.27045 34.1133 2.93182 34.1133H40.0682C41.7295 34.1133 43 32.8429 43 31.1815V26.2951C43 25.7088 42.6091 25.3179 42.0227 25.3179Z" fill="white"/>
<path d="M42.0227 25.3179C41.4364 25.3179 41.0455 25.7088 41.0455 26.2951V31.1815C41.0455 31.7679 40.6545 32.1588 40.0682 32.1588H2.93182C2.34545 32.1588 1.95455 31.7679 1.95455 31.1815V6.74969C1.95455 6.16333 2.34545 5.77242 2.93182 5.77242H5.86364C6.45 5.77242 6.84091 5.38151 6.84091 4.79514C6.84091 4.20878 6.45 3.81787 5.86364 3.81787H2.93182C1.27045 3.81787 0 5.08833 0 6.74969V31.1815C0 32.8429 1.27045 34.1133 2.93182 34.1133H40.0682C41.7295 34.1133 43 32.8429 43 31.1815V26.2951C43 25.7088 42.6091 25.3179 42.0227 25.3179Z" fill="url(#paint4_linear)"/>
<path d="M40.0683 3.81787H37.1365C36.5501 3.81787 36.1592 4.20878 36.1592 4.79514C36.1592 5.38151 36.5501 5.77242 37.1365 5.77242H40.0683C40.6546 5.77242 41.0455 6.16333 41.0455 6.74969V21.4088H30.491C29.416 21.4088 28.341 21.9951 27.8524 23.0701L26.9728 24.8292C26.7774 25.1224 26.4842 25.4156 26.0933 25.4156H16.8092C16.4183 25.4156 16.1251 25.2201 15.9296 24.8292L15.0501 23.0701C14.5615 22.0929 13.5842 21.4088 12.4115 21.4088H4.88645C4.30009 21.4088 3.90918 21.7997 3.90918 22.3861C3.90918 22.9724 4.30009 23.3633 4.88645 23.3633H12.5092C12.9001 23.3633 13.1933 23.5588 13.3887 23.9497L14.2683 25.7088C14.7569 26.6861 15.7342 27.3701 16.9069 27.3701H26.191C27.266 27.3701 28.341 26.7838 28.8296 25.7088L29.7092 23.9497C29.9046 23.6565 30.1978 23.3633 30.5887 23.3633H42.0228C42.6092 23.3633 43.0001 22.9724 43.0001 22.3861V6.74969C43.0001 5.08833 41.7296 3.81787 40.0683 3.81787Z" fill="white"/>
<path d="M40.0683 3.81787H37.1365C36.5501 3.81787 36.1592 4.20878 36.1592 4.79514C36.1592 5.38151 36.5501 5.77242 37.1365 5.77242H40.0683C40.6546 5.77242 41.0455 6.16333 41.0455 6.74969V21.4088H30.491C29.416 21.4088 28.341 21.9951 27.8524 23.0701L26.9728 24.8292C26.7774 25.1224 26.4842 25.4156 26.0933 25.4156H16.8092C16.4183 25.4156 16.1251 25.2201 15.9296 24.8292L15.0501 23.0701C14.5615 22.0929 13.5842 21.4088 12.4115 21.4088H4.88645C4.30009 21.4088 3.90918 21.7997 3.90918 22.3861C3.90918 22.9724 4.30009 23.3633 4.88645 23.3633H12.5092C12.9001 23.3633 13.1933 23.5588 13.3887 23.9497L14.2683 25.7088C14.7569 26.6861 15.7342 27.3701 16.9069 27.3701H26.191C27.266 27.3701 28.341 26.7838 28.8296 25.7088L29.7092 23.9497C29.9046 23.6565 30.1978 23.3633 30.5887 23.3633H42.0228C42.6092 23.3633 43.0001 22.9724 43.0001 22.3861V6.74969C43.0001 5.08833 41.7296 3.81787 40.0683 3.81787Z" fill="url(#paint5_linear)"/>
<defs>
<linearGradient id="paint0_linear" x1="21.5001" y1="6.75" x2="21.5001" y2="19.4545" gradientUnits="userSpaceOnUse">
<stop stop-color="white"/>
<stop offset="1" stop-color="white" stop-opacity="0"/>
</linearGradient>
<linearGradient id="paint1_linear" x1="21.5" y1="10.6895" x2="21.5" y2="18.7703" gradientUnits="userSpaceOnUse">
<stop stop-color="white"/>
<stop offset="1" stop-color="white" stop-opacity="0"/>
</linearGradient>
<linearGradient id="paint2_linear" x1="21.5" y1="3.81787" x2="21.5" y2="5.77242" gradientUnits="userSpaceOnUse">
<stop stop-color="white"/>
<stop offset="1" stop-color="white" stop-opacity="0"/>
</linearGradient>
<linearGradient id="paint3_linear" x1="21.5" y1="0.88623" x2="21.5" y2="2.84078" gradientUnits="userSpaceOnUse">
<stop stop-color="white"/>
<stop offset="1" stop-color="white" stop-opacity="0"/>
</linearGradient>
<linearGradient id="paint4_linear" x1="21.5" y1="3.81787" x2="21.5" y2="34.1133" gradientUnits="userSpaceOnUse">
<stop stop-color="white"/>
<stop offset="1" stop-color="white" stop-opacity="0"/>
</linearGradient>
<linearGradient id="paint5_linear" x1="23.4546" y1="3.81787" x2="23.4546" y2="27.3701" gradientUnits="userSpaceOnUse">
<stop stop-color="white"/>
<stop offset="1" stop-color="white" stop-opacity="0"/>
</linearGradient>
</defs>
</svg>
