<svg width="39" height="39" viewBox="0 0 39 39" fill="none" xmlns="http://www.w3.org/2000/svg">
<path d="M30.1362 26.5909C29.6044 26.5909 29.2499 26.9455 29.2499 27.4773V36.3409C29.2499 36.8727 28.8953 37.2273 28.3635 37.2273H3.54532C3.0135 37.2273 2.65896 36.8727 2.65896 36.3409V2.65909C2.65896 2.12727 3.0135 1.77273 3.54532 1.77273H21.8044L26.8567 6.825C27.2112 7.17955 27.7431 7.17955 28.0976 6.825C28.4521 6.47045 28.4521 5.93864 28.0976 5.58409L22.7794 0.265909C22.6021 0.0886364 22.4249 0 22.159 0H3.54532C2.0385 0 0.88623 1.15227 0.88623 2.65909V36.3409C0.88623 37.8477 2.0385 39 3.54532 39H28.3635C29.8703 39 31.0226 37.8477 31.0226 36.3409V27.4773C31.0226 26.9455 30.6681 26.5909 30.1362 26.5909Z" fill="white"/>
<path d="M30.1362 26.5909C29.6044 26.5909 29.2499 26.9455 29.2499 27.4773V36.3409C29.2499 36.8727 28.8953 37.2273 28.3635 37.2273H3.54532C3.0135 37.2273 2.65896 36.8727 2.65896 36.3409V2.65909C2.65896 2.12727 3.0135 1.77273 3.54532 1.77273H21.8044L26.8567 6.825C27.2112 7.17955 27.7431 7.17955 28.0976 6.825C28.4521 6.47045 28.4521 5.93864 28.0976 5.58409L22.7794 0.265909C22.6021 0.0886364 22.4249 0 22.159 0H3.54532C2.0385 0 0.88623 1.15227 0.88623 2.65909V36.3409C0.88623 37.8477 2.0385 39 3.54532 39H28.3635C29.8703 39 31.0226 37.8477 31.0226 36.3409V27.4773C31.0226 26.9455 30.6681 26.5909 30.1362 26.5909Z" fill="url(#paint0_linear)"/>
<path d="M37.8476 15.334L34.3021 11.7886C33.9476 11.434 33.4158 11.434 33.0612 11.7886L31.0226 13.8272V8.86359C31.0226 8.33177 30.668 7.97723 30.1362 7.97723H23.9317C23.3999 7.97723 23.0453 7.62268 23.0453 7.09086V4.43177C23.0453 3.89996 22.6908 3.54541 22.159 3.54541C21.6271 3.54541 21.2726 3.89996 21.2726 4.43177V7.09086C21.2726 8.59768 22.4249 9.74996 23.9317 9.74996H29.2499V15.6L20.6521 24.1977C20.4749 24.375 20.3862 24.5522 20.3862 24.8181V28.3636C20.3862 28.8954 20.7408 29.25 21.2726 29.25H24.818C25.084 29.25 25.2612 29.1613 25.4385 28.984L37.8476 16.575C38.2021 16.2204 38.2021 15.6886 37.8476 15.334ZM22.159 27.4772V25.1727L24.4635 27.4772H22.159ZM34.568 17.3727L33.4158 16.2204C33.0612 15.8659 32.5294 15.8659 32.1749 16.2204C31.8203 16.575 31.8203 17.1068 32.1749 17.4613L33.3271 18.6136L25.7044 26.2363L23.3999 23.9318L30.7567 16.575L33.6817 13.65L35.9862 15.9545L34.568 17.3727Z" fill="white"/>
<path d="M37.8476 15.334L34.3021 11.7886C33.9476 11.434 33.4158 11.434 33.0612 11.7886L31.0226 13.8272V8.86359C31.0226 8.33177 30.668 7.97723 30.1362 7.97723H23.9317C23.3999 7.97723 23.0453 7.62268 23.0453 7.09086V4.43177C23.0453 3.89996 22.6908 3.54541 22.159 3.54541C21.6271 3.54541 21.2726 3.89996 21.2726 4.43177V7.09086C21.2726 8.59768 22.4249 9.74996 23.9317 9.74996H29.2499V15.6L20.6521 24.1977C20.4749 24.375 20.3862 24.5522 20.3862 24.8181V28.3636C20.3862 28.8954 20.7408 29.25 21.2726 29.25H24.818C25.084 29.25 25.2612 29.1613 25.4385 28.984L37.8476 16.575C38.2021 16.2204 38.2021 15.6886 37.8476 15.334ZM22.159 27.4772V25.1727L24.4635 27.4772H22.159ZM34.568 17.3727L33.4158 16.2204C33.0612 15.8659 32.5294 15.8659 32.1749 16.2204C31.8203 16.575 31.8203 17.1068 32.1749 17.4613L33.3271 18.6136L25.7044 26.2363L23.3999 23.9318L30.7567 16.575L33.6817 13.65L35.9862 15.9545L34.568 17.3727Z" fill="url(#paint1_linear)"/>
<path d="M6.20423 29.2498H17.727C18.2588 29.2498 18.6133 28.8952 18.6133 28.3634C18.6133 27.8316 18.2588 27.4771 17.727 27.4771H6.20423C5.67242 27.4771 5.31787 27.8316 5.31787 28.3634C5.31787 28.8952 5.67242 29.2498 6.20423 29.2498Z" fill="white"/>
<path d="M6.20423 29.2498H17.727C18.2588 29.2498 18.6133 28.8952 18.6133 28.3634C18.6133 27.8316 18.2588 27.4771 17.727 27.4771H6.20423C5.67242 27.4771 5.31787 27.8316 5.31787 28.3634C5.31787 28.8952 5.67242 29.2498 6.20423 29.2498Z" fill="url(#paint2_linear)"/>
<path d="M6.20423 15.0681H15.0679C15.5997 15.0681 15.9542 14.7136 15.9542 14.1818C15.9542 13.65 15.5997 13.2954 15.0679 13.2954H6.20423C5.67242 13.2954 5.31787 13.65 5.31787 14.1818C5.31787 14.7136 5.67242 15.0681 6.20423 15.0681Z" fill="white"/>
<path d="M6.20423 15.0681H15.0679C15.5997 15.0681 15.9542 14.7136 15.9542 14.1818C15.9542 13.65 15.5997 13.2954 15.0679 13.2954H6.20423C5.67242 13.2954 5.31787 13.65 5.31787 14.1818C5.31787 14.7136 5.67242 15.0681 6.20423 15.0681Z" fill="url(#paint3_linear)"/>
<path d="M19.4996 16.8413H13.2951C12.7632 16.8413 12.4087 17.1959 12.4087 17.7277C12.4087 18.2595 12.7632 18.614 13.2951 18.614H19.4996C20.0314 18.614 20.386 18.2595 20.386 17.7277C20.386 17.1959 20.0314 16.8413 19.4996 16.8413Z" fill="white"/>
<path d="M19.4996 16.8413H13.2951C12.7632 16.8413 12.4087 17.1959 12.4087 17.7277C12.4087 18.2595 12.7632 18.614 13.2951 18.614H19.4996C20.0314 18.614 20.386 18.2595 20.386 17.7277C20.386 17.1959 20.0314 16.8413 19.4996 16.8413Z" fill="url(#paint4_linear)"/>
<path d="M23.0452 14.1818C23.0452 13.65 22.6907 13.2954 22.1589 13.2954H18.6134C18.0816 13.2954 17.7271 13.65 17.7271 14.1818C17.7271 14.7136 18.0816 15.0681 18.6134 15.0681H22.1589C22.6907 15.0681 23.0452 14.7136 23.0452 14.1818Z" fill="white"/>
<path d="M23.0452 14.1818C23.0452 13.65 22.6907 13.2954 22.1589 13.2954H18.6134C18.0816 13.2954 17.7271 13.65 17.7271 14.1818C17.7271 14.7136 18.0816 15.0681 18.6134 15.0681H22.1589C22.6907 15.0681 23.0452 14.7136 23.0452 14.1818Z" fill="url(#paint5_linear)"/>
<path d="M6.20423 22.159H14.1815C14.7133 22.159 15.0679 21.8044 15.0679 21.2726C15.0679 20.7408 14.7133 20.3862 14.1815 20.3862H6.20423C5.67242 20.3862 5.31787 20.7408 5.31787 21.2726C5.31787 21.8044 5.67242 22.159 6.20423 22.159Z" fill="white"/>
<path d="M6.20423 22.159H14.1815C14.7133 22.159 15.0679 21.8044 15.0679 21.2726C15.0679 20.7408 14.7133 20.3862 14.1815 20.3862H6.20423C5.67242 20.3862 5.31787 20.7408 5.31787 21.2726C5.31787 21.8044 5.67242 22.159 6.20423 22.159Z" fill="url(#paint6_linear)"/>
<path d="M6.20423 25.7044H9.74969C10.2815 25.7044 10.6361 25.3498 10.6361 24.818C10.6361 24.2862 10.2815 23.9316 9.74969 23.9316H6.20423C5.67242 23.9316 5.31787 24.2862 5.31787 24.818C5.31787 25.3498 5.67242 25.7044 6.20423 25.7044Z" fill="white"/>
<path d="M6.20423 25.7044H9.74969C10.2815 25.7044 10.6361 25.3498 10.6361 24.818C10.6361 24.2862 10.2815 23.9316 9.74969 23.9316H6.20423C5.67242 23.9316 5.31787 24.2862 5.31787 24.818C5.31787 25.3498 5.67242 25.7044 6.20423 25.7044Z" fill="url(#paint7_linear)"/>
<path d="M6.20423 18.614H9.74969C10.2815 18.614 10.6361 18.2595 10.6361 17.7277C10.6361 17.1959 10.2815 16.8413 9.74969 16.8413H6.20423C5.67242 16.8413 5.31787 17.1959 5.31787 17.7277C5.31787 18.2595 5.67242 18.614 6.20423 18.614Z" fill="white"/>
<path d="M6.20423 18.614H9.74969C10.2815 18.614 10.6361 18.2595 10.6361 17.7277C10.6361 17.1959 10.2815 16.8413 9.74969 16.8413H6.20423C5.67242 16.8413 5.31787 17.1959 5.31787 17.7277C5.31787 18.2595 5.67242 18.614 6.20423 18.614Z" fill="url(#paint8_linear)"/>
<path d="M20.3858 21.2726C20.3858 20.7408 20.0312 20.3862 19.4994 20.3862H17.7267C17.1949 20.3862 16.8403 20.7408 16.8403 21.2726C16.8403 21.8044 17.1949 22.159 17.7267 22.159H19.4994C20.0312 22.159 20.3858 21.8044 20.3858 21.2726Z" fill="white"/>
<path d="M20.3858 21.2726C20.3858 20.7408 20.0312 20.3862 19.4994 20.3862H17.7267C17.1949 20.3862 16.8403 20.7408 16.8403 21.2726C16.8403 21.8044 17.1949 22.159 17.7267 22.159H19.4994C20.0312 22.159 20.3858 21.8044 20.3858 21.2726Z" fill="url(#paint9_linear)"/>
<path d="M12.4087 24.818C12.4087 25.3498 12.7632 25.7044 13.2951 25.7044H16.8405C17.3723 25.7044 17.7269 25.3498 17.7269 24.818C17.7269 24.2862 17.3723 23.9316 16.8405 23.9316H13.2951C12.7632 23.9316 12.4087 24.2862 12.4087 24.818Z" fill="white"/>
<path d="M12.4087 24.818C12.4087 25.3498 12.7632 25.7044 13.2951 25.7044H16.8405C17.3723 25.7044 17.7269 25.3498 17.7269 24.818C17.7269 24.2862 17.3723 23.9316 16.8405 23.9316H13.2951C12.7632 23.9316 12.4087 24.2862 12.4087 24.818Z" fill="url(#paint10_linear)"/>
<defs>
<linearGradient id="paint0_linear" x1="15.9544" y1="0" x2="15.9544" y2="39" gradientUnits="userSpaceOnUse">
<stop stop-color="white"/>
<stop offset="1" stop-color="white" stop-opacity="0"/>
</linearGradient>
<linearGradient id="paint1_linear" x1="29.2499" y1="3.54541" x2="29.2499" y2="29.25" gradientUnits="userSpaceOnUse">
<stop stop-color="white"/>
<stop offset="1" stop-color="white" stop-opacity="0"/>
</linearGradient>
<linearGradient id="paint2_linear" x1="11.9656" y1="27.4771" x2="11.9656" y2="29.2498" gradientUnits="userSpaceOnUse">
<stop stop-color="white"/>
<stop offset="1" stop-color="white" stop-opacity="0"/>
</linearGradient>
<linearGradient id="paint3_linear" x1="10.6361" y1="13.2954" x2="10.6361" y2="15.0681" gradientUnits="userSpaceOnUse">
<stop stop-color="white"/>
<stop offset="1" stop-color="white" stop-opacity="0"/>
</linearGradient>
<linearGradient id="paint4_linear" x1="16.3973" y1="16.8413" x2="16.3973" y2="18.614" gradientUnits="userSpaceOnUse">
<stop stop-color="white"/>
<stop offset="1" stop-color="white" stop-opacity="0"/>
</linearGradient>
<linearGradient id="paint5_linear" x1="20.3861" y1="13.2954" x2="20.3861" y2="15.0681" gradientUnits="userSpaceOnUse">
<stop stop-color="white"/>
<stop offset="1" stop-color="white" stop-opacity="0"/>
</linearGradient>
<linearGradient id="paint6_linear" x1="10.1929" y1="20.3862" x2="10.1929" y2="22.159" gradientUnits="userSpaceOnUse">
<stop stop-color="white"/>
<stop offset="1" stop-color="white" stop-opacity="0"/>
</linearGradient>
<linearGradient id="paint7_linear" x1="7.97696" y1="23.9316" x2="7.97696" y2="25.7044" gradientUnits="userSpaceOnUse">
<stop stop-color="white"/>
<stop offset="1" stop-color="white" stop-opacity="0"/>
</linearGradient>
<linearGradient id="paint8_linear" x1="7.97696" y1="16.8413" x2="7.97696" y2="18.614" gradientUnits="userSpaceOnUse">
<stop stop-color="white"/>
<stop offset="1" stop-color="white" stop-opacity="0"/>
</linearGradient>
<linearGradient id="paint9_linear" x1="18.6131" y1="20.3862" x2="18.6131" y2="22.159" gradientUnits="userSpaceOnUse">
<stop stop-color="white"/>
<stop offset="1" stop-color="white" stop-opacity="0"/>
</linearGradient>
<linearGradient id="paint10_linear" x1="15.0678" y1="23.9316" x2="15.0678" y2="25.7044" gradientUnits="userSpaceOnUse">
<stop stop-color="white"/>
<stop offset="1" stop-color="white" stop-opacity="0"/>
</linearGradient>
</defs>
</svg>
