<svg width="38" height="38" viewBox="0 0 38 38" fill="none" xmlns="http://www.w3.org/2000/svg">
<path d="M18.1363 12.091C19.6045 12.091 20.7273 13.2138 20.7273 14.682C20.7273 15.2001 21.0727 15.5456 21.5909 15.5456C22.1091 15.5456 22.4545 15.2001 22.4545 14.682C22.4545 12.2638 20.5545 10.3638 18.1363 10.3638C17.6182 10.3638 17.2727 10.7092 17.2727 11.2274C17.2727 11.7456 17.6182 12.091 18.1363 12.091Z" fill="#2C5DE5"/>
<path d="M18.1363 6.90891C22.4545 6.90891 25.9091 10.3635 25.9091 14.6816C25.9091 15.1998 26.2545 15.5453 26.7727 15.5453C27.2909 15.5453 27.6363 15.1998 27.6363 14.6816C27.6363 9.41346 23.4045 5.18164 18.1363 5.18164C17.6182 5.18164 17.2727 5.5271 17.2727 6.04528C17.2727 6.56346 17.6182 6.90891 18.1363 6.90891Z" fill="#2C5DE5"/>
<path d="M18.1363 1.72727C25.3045 1.72727 31.0909 7.51364 31.0909 14.6818C31.0909 15.2 31.4363 15.5455 31.9545 15.5455C32.4727 15.5455 32.8182 15.2 32.8182 14.6818C32.8182 6.56364 26.2545 0 18.1363 0C17.6182 0 17.2727 0.345455 17.2727 0.863636C17.2727 1.38182 17.6182 1.72727 18.1363 1.72727Z" fill="#2C5DE5"/>
<path d="M32.8182 26.7727V24.7864C32.8182 23.3182 31.6955 22.1955 30.2273 22.1955H29.7091C27.6364 22.1955 25.5636 21.85 23.6636 21.2455C22.5409 20.9 21.3318 21.3318 20.6409 22.2818L19.8636 23.5773C19.6045 23.9227 19.0864 24.0955 18.7409 23.9227C14.5091 21.6773 11.1409 18.3091 8.89545 14.0773C8.72273 13.6455 8.80909 13.2136 9.24091 12.9545L10.5364 12.1773C11.5727 11.5727 12.0045 10.2773 11.5727 9.15455C10.8818 7.16818 10.6227 5.18182 10.6227 3.10909V2.59091C10.6227 1.12273 9.5 0 8.03182 0H4.31818C1.9 0 0 1.9 0 4.31818C0 20.0364 12.7818 32.8182 28.5 32.8182C29.5364 32.8182 30.5727 32.4727 31.35 31.6955C31.6955 31.35 31.7818 30.8318 31.4364 30.4864C31.0909 30.1409 30.5727 30.0545 30.2273 30.4C29.7955 30.8318 29.1045 31.0045 28.5 31.0045C13.7318 31.0909 1.72727 19.0864 1.72727 4.31818C1.72727 2.85 2.85 1.72727 4.31818 1.72727H5.18182V3.45455C5.18182 5.7 5.44091 7.94545 6.04545 10.1045C6.13182 10.45 6.47727 10.7091 6.90909 10.7091C6.99545 10.7091 7.08182 10.7091 7.16818 10.7091C7.6 10.6227 7.85909 10.1045 7.77273 9.67273C7.16818 7.68636 6.90909 5.52727 6.90909 3.45455V1.72727H8.03182C8.55 1.72727 8.89545 2.07273 8.89545 2.59091V3.10909C8.89545 5.35455 9.24091 7.6 9.93182 9.67273C10.0182 10.0182 9.93182 10.45 9.58636 10.7091L8.29091 11.4864C7.16818 12.1773 6.73636 13.7318 7.34091 14.9409C9.75909 19.4318 13.3864 23.0591 17.8773 25.4773C19.0864 26.0818 20.5545 25.7364 21.3318 24.5273L22.1091 23.2318C22.2818 22.8864 22.7136 22.7136 23.1455 22.8864C25.3045 23.5773 27.4636 23.9227 29.7091 23.9227H30.2273C30.7455 23.9227 31.0909 24.2682 31.0909 24.7864V26.7727H29.3636C27.2909 26.7727 25.1318 26.5136 23.1455 25.9091C22.7136 25.8227 22.1955 26.0818 22.1091 26.5136C22.0227 26.9455 22.2818 27.4636 22.7136 27.55C24.8727 28.1545 27.1182 28.4136 29.3636 28.4136H31.9545H32.3864C34.5455 28.4136 36.2727 30.1409 36.2727 32.3C36.2727 34.4591 34.5455 36.2727 32.3864 36.2727H13.8182C11.6591 36.2727 9.93182 34.5455 9.93182 32.3864C9.93182 29.2773 7.42727 26.7727 4.31818 26.7727C3.8 26.7727 3.45455 27.1182 3.45455 27.6364C3.45455 28.1545 3.8 28.5 4.31818 28.5C6.47727 28.5 8.20455 30.2273 8.20455 32.3864C8.20455 35.4955 10.7091 38 13.8182 38H32.3864C35.4955 38 38 35.4955 38 32.3864C38 29.45 35.7545 27.0318 32.8182 26.7727Z" fill="#2C5DE5"/>
</svg>
