<svg width="39" height="39" viewBox="0 0 39 39" fill="none" xmlns="http://www.w3.org/2000/svg">
<path d="M38.1136 7.97714C37.5818 7.97714 37.2273 8.33169 37.2273 8.8635C37.2273 10.3703 36.075 11.5226 34.5682 11.5226H22.1591C21.6273 11.5226 21.2727 11.8771 21.2727 12.409C21.2727 12.9408 21.6273 13.2953 22.1591 13.2953H34.5682C35.5432 13.2953 36.5182 12.9408 37.2273 12.409V33.6817C37.2273 35.1885 36.075 36.3408 34.5682 36.3408H4.43182C2.925 36.3408 1.77273 35.1885 1.77273 33.6817V12.409C2.48182 12.9408 3.45682 13.2953 4.43182 13.2953H9.75C11.2568 16.7521 13.2955 19.7658 13.4727 20.0317C13.65 20.2976 13.9159 20.3862 14.1818 20.3862C14.4477 20.3862 14.7136 20.209 14.8909 20.0317C15.1568 19.6771 20.3864 11.6999 20.3864 7.09078C20.3864 3.63396 17.6386 0.88623 14.1818 0.88623C10.725 0.88623 7.97727 3.63396 7.97727 7.09078C7.97727 8.42032 8.42045 9.92714 8.95227 11.5226H4.43182C2.925 11.5226 1.77273 10.3703 1.77273 8.8635C1.77273 8.33169 1.41818 7.97714 0.886364 7.97714C0.354545 7.97714 0 8.33169 0 8.8635V33.6817C0 36.1635 1.95 38.1135 4.43182 38.1135H34.5682C37.05 38.1135 39 36.1635 39 33.6817V8.8635C39 8.33169 38.6455 7.97714 38.1136 7.97714ZM14.1818 2.65896C16.6636 2.65896 18.6136 4.60896 18.6136 7.09078C18.6136 10.2817 15.6 15.5112 14.1818 17.8158C12.7636 15.5112 9.75 10.193 9.75 7.09078C9.75 4.60896 11.7 2.65896 14.1818 2.65896Z" fill="#2C5DE5"/>
<path d="M14.1818 8.86333C15.1608 8.86333 15.9545 8.06965 15.9545 7.0906C15.9545 6.11155 15.1608 5.31787 14.1818 5.31787C13.2027 5.31787 12.4091 6.11155 12.4091 7.0906C12.4091 8.06965 13.2027 8.86333 14.1818 8.86333Z" fill="#2C5DE5"/>
<path d="M34.5682 30.1362C34.5682 29.6044 34.2136 29.2498 33.6818 29.2498H27.9204L27.4773 24.7294C27.3886 24.2862 27.0341 23.9316 26.5023 23.9316C26.0591 24.0203 25.6159 24.3748 25.7045 24.9066L26.5909 33.7703C26.6795 34.2135 27.0341 34.568 27.4773 34.568H27.5659C28.0091 34.4794 28.4523 34.1248 28.3636 33.593L28.0977 31.0225H33.6818C34.2136 31.0225 34.5682 30.668 34.5682 30.1362Z" fill="#2C5DE5"/>
<path d="M10.459 29.25C9.83858 29.25 9.21812 29.4273 8.59767 29.7818L4.78631 32.0864C4.43176 32.2636 4.34313 32.7955 4.5204 33.2386C4.69767 33.5045 5.05222 33.6818 5.31813 33.6818C5.4954 33.6818 5.67267 33.6818 5.76131 33.5932L9.57267 31.2886C9.83858 31.1114 10.1931 31.0227 10.459 31.0227H23.0454C23.5772 31.0227 23.9318 30.6682 23.9318 30.1364C23.9318 29.6045 23.5772 29.25 23.0454 29.25H10.459Z" fill="#2C5DE5"/>
<path d="M18.0818 21.4497L16.1318 23.3997C15.7772 23.7542 15.334 23.9315 14.8909 23.9315H12.6749C12.2318 23.9315 11.7886 23.7542 11.434 23.3997L9.48404 21.4497C8.68631 20.7406 7.79995 20.3861 6.91358 20.3861H5.31813C4.78631 20.3861 4.43176 20.7406 4.43176 21.2724C4.43176 21.8042 4.78631 22.1588 5.31813 22.1588H6.91358C7.35676 22.1588 7.79995 22.3361 8.15449 22.6906L10.1045 24.6406C10.8136 25.3497 11.6999 25.7042 12.5863 25.7042H14.8022C15.7772 25.7042 16.6636 25.3497 17.284 24.6406L19.234 22.6906C19.5886 22.3361 20.0318 22.1588 20.4749 22.1588H33.6818C34.2136 22.1588 34.5681 21.8042 34.5681 21.2724C34.5681 20.7406 34.2136 20.3861 33.6818 20.3861H27.034L26.5909 15.8656C26.5022 15.4224 26.1477 15.0679 25.6159 15.0679C25.1727 15.1565 24.7295 15.5111 24.8181 16.0429L25.2613 20.3861H20.5636C19.6772 20.3861 18.7909 20.7406 18.0818 21.4497Z" fill="#2C5DE5"/>
</svg>
