<svg width="193" height="57" viewBox="0 0 193 57" fill="none" xmlns="http://www.w3.org/2000/svg">
<path d="M119.355 13.2913H115.733C115.34 14.2124 114.836 15.4434 114.517 16.2612H112.943L117.001 6.02588H118.07L122.127 16.244H120.566L119.355 13.2913ZM116.28 11.9226H118.79L117.548 8.36304L116.28 11.9226Z" fill="#878787"/>
<path d="M128.659 8.78067C128.457 7.87679 127.474 7.48942 126.594 7.48942C126.252 7.48006 125.911 7.54354 125.595 7.67563C125.279 7.80773 124.995 8.00541 124.762 8.25556C124.562 8.52344 124.474 8.85822 124.516 9.18956C124.589 10.2312 125.727 10.3603 126.81 10.4593C128.198 10.6315 129.914 10.993 130.302 12.6114C130.347 12.8296 130.372 13.0515 130.376 13.2742C130.376 15.2197 128.444 16.3431 126.624 16.3431C125.063 16.3431 123.175 15.422 122.985 13.6185V13.3474L124.455 13.3173V13.5325V13.4765C124.555 14.4105 125.697 14.9012 126.633 14.9012C127.715 14.9012 128.901 14.2986 128.901 13.2613C128.898 13.144 128.883 13.0272 128.858 12.9127C128.685 12.1508 127.642 12.0217 126.633 11.9184C125.059 11.7591 123.214 11.4148 123.054 9.31008C122.987 8.62412 123.183 7.93832 123.602 7.39042C123.98 6.95371 124.451 6.60688 124.981 6.37528C125.51 6.14368 126.085 6.03317 126.663 6.05183C128.22 6.05183 129.837 6.85671 130.113 8.70319L128.659 8.78067Z" fill="#878787"/>
<path d="M137.356 8.78067C137.158 7.87679 136.175 7.48942 135.295 7.48942C134.953 7.47923 134.612 7.54232 134.296 7.67447C133.98 7.80661 133.696 8.00475 133.463 8.25556C133.263 8.52344 133.175 8.85822 133.217 9.18956C133.286 10.2312 134.429 10.3603 135.511 10.4593C136.895 10.6315 138.615 10.993 139.003 12.6114C139.048 12.8296 139.073 13.0515 139.077 13.2742C139.077 15.2197 137.141 16.3431 135.325 16.3431C133.765 16.3431 131.876 15.422 131.686 13.6185V13.3474L133.157 13.3173V13.5325V13.4765C133.26 14.4105 134.398 14.9012 135.338 14.9012C136.421 14.9012 137.602 14.2986 137.602 13.2613C137.597 13.1433 137.578 13.0263 137.546 12.9127C137.374 12.1508 136.334 12.0217 135.325 11.9184C133.752 11.7591 131.902 11.4148 131.747 9.31008C131.678 8.62397 131.874 7.93754 132.294 7.39042C132.672 6.95371 133.143 6.60688 133.673 6.37528C134.203 6.14368 134.778 6.03317 135.356 6.05183C136.912 6.05183 138.529 6.85671 138.805 8.70319L137.356 8.78067Z" fill="#878787"/>
<path d="M141.797 7.57112C142.273 7.08713 142.84 6.70264 143.466 6.44016C144.092 6.17768 144.764 6.04248 145.443 6.04248C146.122 6.04248 146.794 6.17768 147.42 6.44016C148.046 6.70264 148.613 7.08713 149.089 7.57112C150.055 8.5392 150.598 9.85012 150.598 11.2167C150.598 12.5834 150.055 13.8943 149.089 14.8624C148.613 15.3464 148.046 15.7309 147.42 15.9933C146.794 16.2558 146.122 16.391 145.443 16.391C144.764 16.391 144.092 16.2558 143.466 15.9933C142.84 15.7309 142.273 15.3464 141.797 14.8624C140.831 13.8943 140.289 12.5834 140.289 11.2167C140.289 9.85012 140.831 8.5392 141.797 7.57112ZM148.05 8.60842C147.357 7.91472 146.418 7.52185 145.437 7.51517C144.954 7.51646 144.477 7.61382 144.033 7.80154C143.588 7.98927 143.186 8.26358 142.85 8.60842C142.506 8.95095 142.234 9.35759 142.049 9.80513C141.863 10.2527 141.767 10.7323 141.767 11.2167C141.767 11.7012 141.863 12.1808 142.049 12.6284C142.234 13.0759 142.506 13.4825 142.85 13.8251C143.186 14.1705 143.588 14.4455 144.032 14.6339C144.477 14.8224 144.954 14.9205 145.437 14.9226C146.166 14.9159 146.878 14.6948 147.483 14.2869C148.088 13.8791 148.559 13.3025 148.837 12.6291C149.116 11.9558 149.19 11.2154 149.05 10.5004C148.91 9.78537 148.562 9.12736 148.05 8.60842Z" fill="#878787"/>
<path d="M153.616 7.63111C154.068 7.15977 154.61 6.7839 155.21 6.52584C155.81 6.26778 156.455 6.13281 157.109 6.12896C158.202 6.1125 159.268 6.47368 160.125 7.15135C160.982 7.82903 161.578 8.78158 161.813 9.84775H160.368C160.149 9.16501 159.711 8.57284 159.122 8.1617C158.534 7.75056 157.827 7.54305 157.109 7.57085C156.643 7.57429 156.183 7.67178 155.756 7.85745C155.329 8.04312 154.945 8.31312 154.625 8.6512C153.957 9.34546 153.584 10.2709 153.584 11.2337C153.584 12.1965 153.957 13.1219 154.625 13.8162C155.041 14.2529 155.563 14.574 156.141 14.7478C156.719 14.9217 157.333 14.9423 157.921 14.8076C158.509 14.673 159.052 14.3877 159.496 13.9799C159.941 13.5721 160.271 13.0558 160.455 12.4819H161.886C161.657 13.5774 161.057 14.5606 160.187 15.2662C159.317 15.9717 158.23 16.3565 157.109 16.3556C156.455 16.3558 155.808 16.2226 155.207 15.9643C154.607 15.706 154.065 15.328 153.616 14.8535C152.689 13.8832 152.172 12.5939 152.172 11.2531C152.172 9.91224 152.689 8.6229 153.616 7.65263V7.63111Z" fill="#878787"/>
<path d="M168.216 7.63135H166.34V14.8064H168.216V16.2612H163.007V14.8064H164.883V7.63135H163.007V6.18945H168.216V7.63135Z" fill="#878787"/>
<path d="M175.731 13.2913H172.109C171.721 14.2124 171.213 15.4434 170.898 16.2612H169.324L173.381 6.02588H174.446L178.508 16.2612H176.952L175.731 13.2913ZM172.657 11.9226H175.171L173.929 8.36304L172.657 11.9226Z" fill="#878787"/>
<path d="M180.867 16.304V7.52778H177.805V6.17627H185.372V7.52778H182.324V16.304H180.867Z" fill="#878787"/>
<path d="M188.309 14.8064H193V16.2612H186.838V6.18945H192.987V7.64426H188.309V10.4807H192.888V11.9527H188.309V14.8064Z" fill="#878787"/>
<path d="M114.62 24.8522C115.096 24.3698 115.664 23.9867 116.29 23.7252C116.916 23.4638 117.587 23.3291 118.266 23.3291C118.944 23.3291 119.616 23.4638 120.242 23.7252C120.868 23.9867 121.435 24.3698 121.911 24.8522C122.878 25.8203 123.42 27.1312 123.42 28.4979C123.42 29.8645 122.878 31.1754 121.911 32.1435C121.436 32.6275 120.869 33.012 120.243 33.2744C119.617 33.5369 118.945 33.6721 118.266 33.6721C117.587 33.6721 116.915 33.5369 116.289 33.2744C115.663 33.012 115.096 32.6275 114.62 32.1435C113.654 31.1754 113.111 29.8645 113.111 28.4979C113.111 27.1312 113.654 25.8203 114.62 24.8522ZM120.872 25.8895C120.18 25.1958 119.241 24.803 118.259 24.7963C117.777 24.7976 117.3 24.8949 116.855 25.0827C116.411 25.2704 116.009 25.5447 115.672 25.8895C115.329 26.2321 115.057 26.6387 114.871 27.0862C114.686 27.5338 114.59 28.0134 114.59 28.4979C114.59 28.9823 114.686 29.4619 114.871 29.9095C115.057 30.357 115.329 30.7637 115.672 31.1062C116.008 31.4524 116.41 31.7279 116.855 31.9164C117.299 32.1049 117.777 32.2026 118.259 32.2037C118.988 32.195 119.699 31.9728 120.302 31.5646C120.906 31.1564 121.376 30.5803 121.654 29.9077C121.932 29.2351 122.007 28.4958 121.868 27.7814C121.729 27.0671 121.383 26.4092 120.872 25.8895Z" fill="#878787"/>
<path d="M130.376 28.7433C129.798 30.3875 129.151 32.0747 128.629 33.5984H127.629L124.236 23.4707H125.749L128.159 30.749L129.785 26.036H130.958L132.6 30.7318C133.394 28.3258 134.278 25.7605 135.028 23.4707H136.554L133.165 33.5984H132.139L130.376 28.7433Z" fill="#878787"/>
<path d="M138.021 33.5423V23.4404H139.146L144.07 30.5595V23.4576H145.514V33.5423H144.359L139.478 26.4964V33.5423H138.021Z" fill="#878787"/>
<path d="M148.783 32.0876H153.474V33.5424H147.312V23.4707H153.461V24.9255H148.783V27.7663H153.357V29.234H148.783V32.0876Z" fill="#878787"/>
<path d="M156.979 28.4288H158.674C159.139 28.4288 159.586 28.2442 159.915 27.9157C160.244 27.5872 160.429 27.1416 160.429 26.677C160.429 26.2124 160.244 25.7668 159.915 25.4383C159.586 25.1098 159.139 24.9252 158.674 24.9252H156.436V33.5335H154.992V23.4575H158.674C159.108 23.4333 159.542 23.4997 159.949 23.6525C160.356 23.8053 160.727 24.0411 161.037 24.3449C161.347 24.6487 161.591 25.0137 161.752 25.4168C161.913 25.8198 161.988 26.252 161.972 26.6856C161.992 27.4303 161.736 28.1561 161.254 28.725C160.773 29.294 160.098 29.6664 159.36 29.7717L162.55 33.5594H160.657L156.979 29.1347V28.4288Z" fill="#878787"/>
<path d="M168.867 26.0661C168.664 25.1579 167.685 24.7749 166.801 24.7749C166.459 24.7647 166.119 24.8274 165.803 24.9587C165.487 25.0901 165.203 25.2871 164.969 25.5367C164.773 25.808 164.687 26.1431 164.727 26.475C164.796 27.5123 165.939 27.6414 167.021 27.7404C168.405 27.9126 170.122 28.2741 170.514 29.8925C170.559 30.1107 170.583 30.3326 170.587 30.5554C170.587 32.5008 168.651 33.6242 166.832 33.6242C165.275 33.6242 163.382 32.7031 163.197 30.8997V30.6285L164.671 30.5984V30.8136V30.7577C164.775 31.696 165.913 32.1823 166.849 32.1823C167.935 32.1823 169.117 31.5797 169.117 30.5424C169.116 30.425 169.101 30.308 169.074 30.1938C168.901 29.432 167.862 29.3028 166.849 29.1995C165.279 29.0446 163.43 28.696 163.27 26.5912C163.204 25.906 163.402 25.2214 163.822 24.6759C164.2 24.2446 164.669 23.9024 165.195 23.6739C165.722 23.4454 166.292 23.3363 166.866 23.3545C168.427 23.3545 170.044 24.1637 170.316 26.0059L168.867 26.0661Z" fill="#878787"/>
<path d="M121.161 44.3545C120.76 42.7275 119.199 42.1335 117.914 42.1335C117.44 42.133 116.97 42.2286 116.533 42.4146C116.097 42.6005 115.703 42.8729 115.374 43.2153C115.046 43.5577 114.791 43.963 114.625 44.4066C114.458 44.8503 114.383 45.323 114.405 45.7964C114.405 47.9269 115.935 49.4979 117.914 49.4979C118.59 49.5222 119.257 49.3392 119.825 48.9737C120.393 48.6081 120.835 48.0776 121.092 47.4535H117.35V45.9987H122.791C122.771 46.5814 122.68 47.1596 122.519 47.7203C122.148 48.6414 121.513 49.4331 120.694 49.9971C119.876 50.5611 118.909 50.8724 117.914 50.8925C115.086 50.8925 112.947 48.7404 112.947 45.7921C112.947 42.8437 115.125 40.6787 117.91 40.6787C119.846 40.6787 122.183 41.673 122.718 44.3545H121.161Z" fill="#878787"/>
<path d="M126.448 45.71H128.151C128.616 45.71 129.062 45.5255 129.392 45.1969C129.721 44.8684 129.906 44.4228 129.906 43.9582C129.906 43.4936 129.721 43.0481 129.392 42.7195C129.062 42.391 128.616 42.2064 128.151 42.2064H125.904V50.8148H124.464V40.7387H128.142C128.574 40.7159 129.006 40.7828 129.411 40.9351C129.816 41.0873 130.185 41.3217 130.494 41.6234C130.804 41.9251 131.047 42.2876 131.209 42.688C131.372 43.0884 131.449 43.518 131.436 43.9496C131.454 44.6941 131.199 45.4193 130.717 45.9881C130.235 46.5568 129.562 46.9296 128.823 47.0357L132.014 50.8234H130.13L126.448 46.3987V45.71Z" fill="#878787"/>
<path d="M134.097 42.1336C134.572 41.6496 135.139 41.2651 135.765 41.0027C136.391 40.7402 137.063 40.605 137.742 40.605C138.421 40.605 139.094 40.7402 139.719 41.0027C140.345 41.2651 140.913 41.6496 141.388 42.1336C142.354 43.1017 142.897 44.4126 142.897 45.7792C142.897 47.1459 142.354 48.4568 141.388 49.4249C140.913 49.9089 140.345 50.2933 139.719 50.5558C139.094 50.8183 138.421 50.9535 137.742 50.9535C137.063 50.9535 136.391 50.8183 135.765 50.5558C135.139 50.2933 134.572 49.9089 134.097 49.4249C133.13 48.4568 132.588 47.1459 132.588 45.7792C132.588 44.4126 133.13 43.1017 134.097 42.1336ZM140.349 43.1709C139.656 42.4772 138.717 42.0844 137.736 42.0777C137.254 42.079 136.776 42.1763 136.332 42.364C135.888 42.5518 135.486 42.8261 135.149 43.1709C134.806 43.5134 134.534 43.9201 134.348 44.3676C134.162 44.8152 134.067 45.2948 134.067 45.7792C134.067 46.2637 134.162 46.7433 134.348 47.1909C134.534 47.6384 134.806 48.045 135.149 48.3876C135.485 48.7338 135.887 49.0093 136.331 49.1978C136.775 49.3863 137.253 49.484 137.736 49.4851C138.466 49.4784 139.177 49.2573 139.782 48.8494C140.387 48.4416 140.858 47.865 141.137 47.1916C141.415 46.5183 141.489 45.7779 141.349 45.0629C141.209 44.3479 140.861 43.6899 140.349 43.1709Z" fill="#878787"/>
<path d="M144.829 47.7979V40.752H146.299V47.8108C146.299 48.9213 147.498 49.4679 148.567 49.4679C149.636 49.4679 150.818 48.9083 150.818 47.7979V40.752H152.292V47.8108C152.292 49.8596 150.296 50.9227 148.567 50.9227C146.838 50.9227 144.829 49.8596 144.829 47.7979Z" fill="#878787"/>
<path d="M158.273 40.7388C160.455 40.7388 161.55 42.4217 161.55 44.1089C161.55 45.7962 160.455 47.4662 158.273 47.4662H156.052V50.8234H154.578V40.7388H158.273ZM158.273 46.0243C158.764 46.001 159.228 45.7897 159.567 45.4343C159.907 45.0788 160.096 44.6065 160.096 44.1154C160.096 43.6242 159.907 43.1519 159.567 42.7965C159.228 42.4411 158.764 42.2298 158.273 42.2065H156.052V46.0243H158.273Z" fill="#878787"/>
<path d="M24.008 20.0143L20.2352 30.594H27.6989L24.008 20.0143ZM24.008 20.0143L20.2352 30.594H27.6989L24.008 20.0143ZM24.008 20.0143L20.2352 30.594H27.6989L24.008 20.0143ZM58.5843 20.7418C56.5288 18.6771 53.739 17.5074 50.8231 17.4878C49.3907 17.4937 47.9738 17.7844 46.6553 18.3431C45.3368 18.9018 44.143 19.7173 43.1438 20.7418C42.1242 21.759 41.3155 22.9668 40.7637 24.2961C40.2119 25.6255 39.9279 27.0503 39.9279 28.4892C39.9279 29.9282 40.2119 31.353 40.7637 32.6824C41.3155 34.0117 42.1242 35.2195 43.1438 36.2367C44.142 37.2626 45.3355 38.0789 46.6543 38.6377C47.973 39.1965 49.3904 39.4865 50.8231 39.4907C52.9908 39.4699 55.1045 38.8127 56.9006 37.6009C58.6966 36.3891 60.0957 34.6764 60.9233 32.6763C61.7508 30.6761 61.9703 28.4771 61.5544 26.3533C61.1385 24.2295 60.1055 22.2749 58.5843 20.7331V20.7418ZM58.5843 20.7418C56.5288 18.6771 53.739 17.5074 50.8231 17.4878C49.3907 17.4937 47.9738 17.7844 46.6553 18.3431C45.3368 18.9018 44.143 19.7173 43.1438 20.7418C42.1242 21.759 41.3155 22.9668 40.7637 24.2961C40.2119 25.6255 39.9279 27.0503 39.9279 28.4892C39.9279 29.9282 40.2119 31.353 40.7637 32.6824C41.3155 34.0117 42.1242 35.2195 43.1438 36.2367C44.142 37.2626 45.3355 38.0789 46.6543 38.6377C47.973 39.1965 49.3904 39.4865 50.8231 39.4907C52.9908 39.4699 55.1045 38.8127 56.9006 37.6009C58.6966 36.3891 60.0957 34.6764 60.9233 32.6763C61.7508 30.6761 61.9703 28.4771 61.5544 26.3533C61.1385 24.2295 60.1055 22.2749 58.5843 20.7331V20.7418ZM24.008 20.0143L20.2352 30.594H27.6989L24.008 20.0143ZM0 0V57H107.006V0H0ZM103.052 53.0402H36.8097L35.5507 49.9283L35.43 49.6442L29.3935 34.6786H18.614C17.4412 37.4032 15.9536 41.0057 15.0007 43.472H10.3181L22.3911 13.1148H25.5646L40.0867 49.6141H99.2876V7.37303H7.70948V49.627H31.1484L32.5368 53.0402H3.96685V3.95983H103.052V53.0402ZM35.5507 28.4935C35.5657 24.4374 37.1634 20.5467 40.0048 17.6471C41.4184 16.2132 43.1036 15.0745 44.9624 14.2972C46.8212 13.5199 48.8164 13.1196 50.8317 13.1196C52.847 13.1196 54.8421 13.5199 56.7009 14.2972C58.5597 15.0745 60.245 16.2132 61.6586 17.6471C64.5148 20.5329 66.1164 24.4261 66.1164 28.4828C66.1164 32.5395 64.5148 36.4327 61.6586 39.3185C60.2447 40.755 58.5584 41.8959 56.698 42.6748C54.8376 43.4536 52.8404 43.8547 50.8231 43.8547C48.8057 43.8547 46.8085 43.4536 44.9481 42.6748C43.0877 41.8959 41.4014 40.755 39.9875 39.3185C37.1596 36.4202 35.569 32.5394 35.5507 28.4935ZM82.1784 39.5466C85.865 39.5466 89.8189 37.825 91.6169 33.4692H80.5054V29.1435H96.6789C96.4633 31.67 96.2477 33.34 95.8683 34.3085V34.2697C93.8073 40.0029 87.6285 43.6829 82.1784 43.6829C73.7704 43.6829 67.4278 37.3515 67.4278 28.528C67.4278 19.7044 73.8997 13.3429 82.1784 13.3429C87.9303 13.3429 94.8766 16.2956 96.4633 24.2583H91.8411C90.6338 19.4204 86.0029 17.6471 82.1784 17.6471C76.3187 17.6471 71.7568 22.2482 71.7568 28.5409C71.7568 34.8336 76.3187 39.5466 82.1784 39.5466ZM58.5843 36.2453C60.1137 34.7067 61.154 32.7515 61.5745 30.625C61.9951 28.4984 61.7773 26.2953 60.9483 24.2919C60.1194 22.2885 58.7163 20.574 56.915 19.3636C55.1137 18.1531 52.9944 17.5006 50.8231 17.4878C49.3907 17.4937 47.9738 17.7844 46.6553 18.3431C45.3368 18.9018 44.143 19.7173 43.1438 20.7418C42.1242 21.759 41.3155 22.9668 40.7637 24.2961C40.2119 25.6255 39.9279 27.0503 39.9279 28.4892C39.9279 29.9282 40.2119 31.353 40.7637 32.6824C41.3155 34.0117 42.1242 35.2195 43.1438 36.2367C44.142 37.2626 45.3355 38.0789 46.6543 38.6377C47.973 39.1965 49.3904 39.4865 50.8231 39.4907C53.7385 39.4771 56.5296 38.31 58.5843 36.2453ZM20.2352 30.594H27.6989L24.008 20.0143L20.2352 30.594ZM24.008 20.0143L20.2352 30.594H27.6989L24.008 20.0143ZM58.5843 20.7418C56.5288 18.6771 53.739 17.5074 50.8231 17.4878C49.3907 17.4937 47.9738 17.7844 46.6553 18.3431C45.3368 18.9018 44.143 19.7173 43.1438 20.7418C42.1242 21.759 41.3155 22.9668 40.7637 24.2961C40.2119 25.6255 39.9279 27.0503 39.9279 28.4892C39.9279 29.9282 40.2119 31.353 40.7637 32.6824C41.3155 34.0117 42.1242 35.2195 43.1438 36.2367C44.142 37.2626 45.3355 38.0789 46.6543 38.6377C47.973 39.1965 49.3904 39.4865 50.8231 39.4907C52.9908 39.4699 55.1045 38.8127 56.9006 37.6009C58.6966 36.3891 60.0957 34.6764 60.9233 32.6763C61.7508 30.6761 61.9703 28.4771 61.5544 26.3533C61.1385 24.2295 60.1055 22.2749 58.5843 20.7331V20.7418ZM58.5843 20.7418C56.5288 18.6771 53.739 17.5074 50.8231 17.4878C49.3907 17.4937 47.9738 17.7844 46.6553 18.3431C45.3368 18.9018 44.143 19.7173 43.1438 20.7418C42.1242 21.759 41.3155 22.9668 40.7637 24.2961C40.2119 25.6255 39.9279 27.0503 39.9279 28.4892C39.9279 29.9282 40.2119 31.353 40.7637 32.6824C41.3155 34.0117 42.1242 35.2195 43.1438 36.2367C44.142 37.2626 45.3355 38.0789 46.6543 38.6377C47.973 39.1965 49.3904 39.4865 50.8231 39.4907C52.9908 39.4699 55.1045 38.8127 56.9006 37.6009C58.6966 36.3891 60.0957 34.6764 60.9233 32.6763C61.7508 30.6761 61.9703 28.4771 61.5544 26.3533C61.1385 24.2295 60.1055 22.2749 58.5843 20.7331V20.7418ZM24.008 20.0143L20.2352 30.594H27.6989L24.008 20.0143Z" fill="#15358C"/>
</svg>
