<svg width="224" height="66" viewBox="0 0 224 66" fill="none" xmlns="http://www.w3.org/2000/svg">
<path d="M138.551 15.3892H134.367C133.914 16.4557 133.331 17.881 132.962 18.828H131.145L135.831 6.97656H137.067L141.753 18.808H139.95L138.551 15.3892ZM135 13.8043H137.898L136.464 9.68275L135 13.8043Z" fill="#878787"/>
<path d="M149.3 10.1669C149.066 9.12034 147.93 8.6718 146.914 8.6718C146.518 8.66097 146.125 8.73447 145.76 8.88742C145.395 9.04037 145.067 9.26927 144.797 9.55891C144.566 9.8691 144.465 10.2567 144.513 10.6404C144.598 11.8465 145.913 11.996 147.163 12.1106C148.767 12.31 150.749 12.7286 151.197 14.6025C151.249 14.8551 151.278 15.1121 151.282 15.37C151.282 17.6226 149.051 18.9234 146.949 18.9234C145.146 18.9234 142.964 17.8569 142.745 15.7687V15.4547L144.444 15.4198V15.669V15.6042C144.558 16.6857 145.878 17.2538 146.959 17.2538C148.209 17.2538 149.579 16.5561 149.579 15.355C149.575 15.2192 149.558 15.084 149.529 14.9513C149.33 14.0692 148.124 13.9197 146.959 13.8001C145.141 13.6157 143.009 13.217 142.825 10.7799C142.748 9.98567 142.974 9.19159 143.457 8.55718C143.894 8.05151 144.438 7.64991 145.05 7.38175C145.662 7.11358 146.326 6.98562 146.994 7.00723C148.792 7.00723 150.659 7.93919 150.978 10.0772L149.3 10.1669Z" fill="#878787"/>
<path d="M159.346 10.1669C159.117 9.12034 157.981 8.6718 156.965 8.6718C156.569 8.66 156.176 8.73306 155.811 8.88607C155.446 9.03908 155.117 9.2685 154.848 9.55891C154.617 9.8691 154.516 10.2567 154.564 10.6404C154.644 11.8465 155.964 11.996 157.214 12.1106C158.813 12.31 160.8 12.7286 161.248 14.6025C161.3 14.8551 161.329 15.1121 161.333 15.37C161.333 17.6226 159.097 18.9234 157 18.9234C155.197 18.9234 153.015 17.8569 152.796 15.7687V15.4547L154.495 15.4198V15.669V15.6042C154.614 16.6857 155.929 17.2538 157.015 17.2538C158.265 17.2538 159.63 16.5561 159.63 15.355C159.624 15.2184 159.602 15.083 159.565 14.9513C159.366 14.0692 158.165 13.9197 157 13.8001C155.182 13.6157 153.045 13.217 152.866 10.7799C152.787 9.98549 153.013 9.19068 153.498 8.55718C153.935 8.05151 154.479 7.64991 155.091 7.38175C155.703 7.11358 156.367 6.98562 157.035 7.00723C158.833 7.00723 160.701 7.93919 161.019 10.0772L159.346 10.1669Z" fill="#878787"/>
<path d="M164.476 8.7661C165.025 8.20568 165.68 7.76048 166.403 7.45656C167.126 7.15264 167.903 6.99609 168.687 6.99609C169.471 6.99609 170.248 7.15264 170.971 7.45656C171.694 7.76048 172.349 8.20568 172.898 8.7661C174.014 9.88704 174.641 11.4049 174.641 12.9873C174.641 14.5697 174.014 16.0877 172.898 17.2086C172.349 17.769 171.694 18.2142 170.971 18.5181C170.248 18.8221 169.471 18.9786 168.687 18.9786C167.903 18.9786 167.126 18.8221 166.403 18.5181C165.68 18.2142 165.025 17.769 164.476 17.2086C163.359 16.0877 162.733 14.5697 162.733 12.9873C162.733 11.4049 163.359 9.88704 164.476 8.7661ZM171.698 9.96718C170.897 9.16394 169.813 8.70905 168.679 8.70131C168.122 8.70281 167.571 8.81554 167.058 9.0329C166.545 9.25027 166.08 9.56789 165.691 9.96718C165.295 10.3638 164.98 10.8346 164.766 11.3528C164.551 11.871 164.441 12.4264 164.441 12.9873C164.441 13.5482 164.551 14.1037 164.766 14.6219C164.98 15.1401 165.295 15.6109 165.691 16.0075C166.08 16.4075 166.544 16.7259 167.057 16.9441C167.57 17.1623 168.122 17.2759 168.679 17.2784C169.522 17.2706 170.345 17.0146 171.043 16.5423C171.742 16.07 172.286 15.4024 172.608 14.6227C172.93 13.843 173.015 12.9858 172.853 12.1579C172.691 11.33 172.289 10.5681 171.698 9.96718Z" fill="#878787"/>
<path d="M178.128 8.83664C178.65 8.29088 179.276 7.85566 179.969 7.55686C180.662 7.25805 181.408 7.10177 182.162 7.0973C183.425 7.07824 184.656 7.49645 185.646 8.28113C186.637 9.06581 187.326 10.1688 187.596 11.4033H185.928C185.674 10.6127 185.168 9.92707 184.489 9.45101C183.809 8.97495 182.992 8.73467 182.162 8.76687C181.625 8.77084 181.093 8.88373 180.6 9.09871C180.107 9.3137 179.663 9.62634 179.294 10.0178C178.522 10.8217 178.09 11.8932 178.09 13.0081C178.09 14.1229 178.522 15.1944 179.294 15.9983C179.774 16.504 180.377 16.8758 181.045 17.0771C181.713 17.2784 182.421 17.3022 183.101 17.1463C183.78 16.9904 184.407 16.6601 184.921 16.1879C185.434 15.7157 185.815 15.1179 186.027 14.4533H187.681C187.417 15.7218 186.723 16.8603 185.718 17.6773C184.713 18.4942 183.457 18.9397 182.162 18.9387C181.407 18.9389 180.66 18.7847 179.966 18.4856C179.272 18.1865 178.647 17.7488 178.128 17.1994C177.057 16.0759 176.46 14.583 176.46 13.0305C176.46 11.4779 177.057 9.98503 178.128 8.86156V8.83664Z" fill="#878787"/>
<path d="M194.993 8.83607H192.826V17.144H194.993V18.8285H188.976V17.144H191.143V8.83607H188.976V7.1665H194.993V8.83607Z" fill="#878787"/>
<path d="M203.674 15.3892H199.49C199.042 16.4557 198.454 17.881 198.09 18.828H196.272L200.959 6.97656H202.19L206.881 18.828H205.083L203.674 15.3892ZM200.123 13.8043H203.026L201.592 9.68275L200.123 13.8043Z" fill="#878787"/>
<path d="M209.606 18.8787V8.71676H206.07V7.15186H214.811V8.71676H211.29V18.8787H209.606Z" fill="#878787"/>
<path d="M218.203 17.144H223.622V18.8285H216.504V7.1665H223.607V8.85102H218.203V12.1353H223.492V13.8398H218.203V17.144Z" fill="#878787"/>
<path d="M133.082 28.7763C133.632 28.2177 134.288 27.7742 135.011 27.4714C135.734 27.1686 136.51 27.0127 137.293 27.0127C138.077 27.0127 138.853 27.1686 139.576 27.4714C140.299 27.7742 140.954 28.2177 141.505 28.7763C142.621 29.8973 143.248 31.4152 143.248 32.9976C143.248 34.58 142.621 36.0979 141.505 37.2188C140.955 37.7792 140.3 38.2244 139.577 38.5284C138.854 38.8323 138.078 38.9888 137.293 38.9888C136.509 38.9888 135.733 38.8323 135.009 38.5284C134.286 38.2244 133.631 37.7792 133.082 37.2188C131.966 36.0979 131.339 34.58 131.339 32.9976C131.339 31.4152 131.966 29.8973 133.082 28.7763ZM140.304 29.9774C139.504 29.1742 138.419 28.7193 137.286 28.7115C136.729 28.713 136.177 28.8258 135.664 29.0431C135.151 29.2605 134.686 29.5781 134.297 29.9774C133.901 30.374 133.587 30.8449 133.372 31.3631C133.158 31.8813 133.047 32.4367 133.047 32.9976C133.047 33.5585 133.158 34.1139 133.372 34.6321C133.587 35.1503 133.901 35.6211 134.297 36.0177C134.685 36.4186 135.15 36.7376 135.663 36.9559C136.176 37.1742 136.728 37.2873 137.286 37.2886C138.128 37.2785 138.948 37.0212 139.645 36.5485C140.343 36.0759 140.886 35.4088 141.207 34.63C141.529 33.8513 141.614 32.9952 141.454 32.168C141.293 31.3409 140.894 30.5792 140.304 29.9774Z" fill="#878787"/>
<path d="M151.282 33.2819C150.614 35.1857 149.867 37.1393 149.264 38.9036H148.109L144.189 27.1768H145.937L148.721 35.6043L150.599 30.1471H151.954L153.852 35.5844C154.768 32.7984 155.789 29.8281 156.656 27.1768H158.419L154.504 38.9036H153.319L151.282 33.2819Z" fill="#878787"/>
<path d="M160.113 38.8385V27.1416H161.413L167.101 35.3848V27.1615H168.769V38.8385H167.434L161.796 30.6801V38.8385H160.113Z" fill="#878787"/>
<path d="M172.545 37.1543H177.964V38.8388H170.846V27.1768H177.949V28.8613H172.545V32.1506H177.829V33.85H172.545V37.1543Z" fill="#878787"/>
<path d="M182.013 32.9181H183.971C184.508 32.9181 185.024 32.7044 185.404 32.324C185.784 31.9436 185.998 31.4277 185.998 30.8897C185.998 30.3518 185.784 29.8358 185.404 29.4554C185.024 29.0751 184.508 28.8613 183.971 28.8613H181.386V38.8289H179.717V27.1619H183.971C184.472 27.1338 184.974 27.2107 185.444 27.3876C185.914 27.5646 186.342 27.8376 186.7 28.1894C187.059 28.5411 187.34 28.9638 187.526 29.4305C187.712 29.8972 187.799 30.3976 187.781 30.8997C187.803 31.762 187.508 32.6023 186.951 33.2611C186.395 33.9199 185.616 34.3512 184.763 34.4731L188.448 38.8588H186.262L182.013 33.7355V32.9181Z" fill="#878787"/>
<path d="M195.745 30.1816C195.511 29.13 194.38 28.6865 193.359 28.6865C192.964 28.6747 192.571 28.7472 192.206 28.8993C191.841 29.0514 191.512 29.2796 191.242 29.5686C191.016 29.8828 190.916 30.2707 190.963 30.655C191.043 31.8561 192.363 32.0056 193.613 32.1203C195.212 32.3196 197.194 32.7383 197.647 34.6121C197.699 34.8648 197.728 35.1217 197.732 35.3796C197.732 37.6323 195.496 38.9331 193.394 38.9331C191.596 38.9331 189.409 37.8665 189.195 35.7784V35.4644L190.898 35.4295V35.6787V35.6139C191.018 36.7003 192.333 37.2635 193.414 37.2635C194.669 37.2635 196.034 36.5658 196.034 35.3647C196.033 35.2287 196.016 35.0932 195.984 34.961C195.785 34.0789 194.584 33.9294 193.414 33.8098C191.601 33.6303 189.464 33.2267 189.28 30.7896C189.204 29.9962 189.432 29.2035 189.917 28.5718C190.354 28.0724 190.896 27.6762 191.504 27.4116C192.112 27.147 192.771 27.0207 193.434 27.0418C195.237 27.0418 197.105 27.9788 197.418 30.1118L195.745 30.1816Z" fill="#878787"/>
<path d="M140.638 51.3577C140.175 49.4738 138.372 48.7861 136.887 48.7861C136.339 48.7855 135.796 48.8962 135.292 49.1115C134.788 49.3268 134.332 49.6423 133.953 50.0387C133.574 50.4352 133.28 50.9044 133.087 51.4181C132.895 51.9318 132.808 52.4792 132.833 53.0273C132.833 55.4942 134.601 57.3133 136.887 57.3133C137.668 57.3414 138.438 57.1295 139.094 56.7063C139.751 56.283 140.262 55.6687 140.558 54.946H136.235V53.2615H142.521C142.498 53.9363 142.392 54.6058 142.207 55.255C141.778 56.3215 141.044 57.2382 140.099 57.8913C139.153 58.5443 138.036 58.9048 136.887 58.928C133.62 58.928 131.15 56.4362 131.15 53.0223C131.15 49.6084 133.665 47.1016 136.882 47.1016C139.119 47.1016 141.818 48.2528 142.436 51.3577H140.638Z" fill="#878787"/>
<path d="M146.744 52.9273H148.711C149.249 52.9273 149.765 52.7136 150.145 52.3332C150.525 51.9528 150.739 51.4369 150.739 50.8989C150.739 50.3609 150.525 49.845 150.145 49.4646C149.765 49.0842 149.249 48.8705 148.711 48.8705H146.116V58.8381H144.453V47.1711H148.701C149.2 47.1447 149.7 47.2221 150.167 47.3984C150.635 47.5747 151.061 47.8461 151.418 48.1955C151.776 48.5448 152.057 48.9645 152.245 49.4281C152.432 49.8917 152.521 50.3891 152.507 50.8889C152.528 51.7509 152.232 52.5907 151.676 53.2492C151.12 53.9078 150.341 54.3394 149.488 54.4623L153.174 58.848H150.998L146.744 53.7247V52.9273Z" fill="#878787"/>
<path d="M155.58 48.7856C156.129 48.2252 156.785 47.78 157.508 47.4761C158.231 47.1722 159.007 47.0156 159.792 47.0156C160.576 47.0156 161.352 47.1722 162.075 47.4761C162.799 47.78 163.454 48.2252 164.003 48.7856C165.119 49.9066 165.746 51.4245 165.746 53.0069C165.746 54.5893 165.119 56.1072 164.003 57.2281C163.454 57.7885 162.799 58.2337 162.075 58.5377C161.352 58.8416 160.576 58.9981 159.792 58.9981C159.007 58.9981 158.231 58.8416 157.508 58.5377C156.785 58.2337 156.129 57.7885 155.58 57.2281C154.464 56.1072 153.837 54.5893 153.837 53.0069C153.837 51.4245 154.464 49.9066 155.58 48.7856ZM162.802 49.9867C162.002 49.1835 160.918 48.7286 159.784 48.7208C159.227 48.7223 158.676 48.8351 158.162 49.0524C157.649 49.2698 157.185 49.5874 156.796 49.9867C156.399 50.3833 156.085 50.8542 155.87 51.3724C155.656 51.8906 155.545 52.446 155.545 53.0069C155.545 53.5678 155.656 54.1232 155.87 54.6414C156.085 55.1596 156.399 55.6304 156.796 56.027C157.184 56.4279 157.648 56.7469 158.161 56.9652C158.675 57.1835 159.226 57.2966 159.784 57.2979C160.627 57.2901 161.449 57.0341 162.148 56.5618C162.846 56.0896 163.391 55.422 163.713 54.6423C164.034 53.8626 164.12 53.0053 163.958 52.1774C163.796 51.3495 163.394 50.5876 162.802 49.9867Z" fill="#878787"/>
<path d="M167.977 55.345V47.1865H169.675V55.3599C169.675 56.6457 171.06 57.2787 172.295 57.2787C173.531 57.2787 174.895 56.6308 174.895 55.345V47.1865H176.599V55.3599C176.599 57.7322 174.293 58.9632 172.295 58.9632C170.298 58.9632 167.977 57.7322 167.977 55.345Z" fill="#878787"/>
<path d="M183.507 47.1719C186.027 47.1719 187.293 49.1205 187.293 51.0742C187.293 53.0278 186.027 54.9615 183.507 54.9615H180.942V58.8488H179.239V47.1719H183.507ZM183.507 53.2919C184.075 53.265 184.61 53.0203 185.003 52.6087C185.395 52.1972 185.614 51.6503 185.614 51.0816C185.614 50.5129 185.395 49.9661 185.003 49.5545C184.61 49.143 184.075 48.8983 183.507 48.8713H180.942V53.2919H183.507Z" fill="#878787"/>
<path d="M28.4119 23.1745L24.0538 35.4246H32.6755L28.4119 23.1745ZM28.4119 23.1745L24.0538 35.4246H32.6755L28.4119 23.1745ZM28.4119 23.1745L24.0538 35.4246H32.6755L28.4119 23.1745ZM68.3525 24.0168C65.9781 21.6261 62.7554 20.2717 59.3872 20.249C57.7325 20.2558 56.0959 20.5925 54.5728 21.2394C53.0497 21.8863 51.6707 22.8305 50.5165 24.0168C49.3388 25.1946 48.4045 26.5931 47.7672 28.1324C47.1298 29.6716 46.8017 31.3214 46.8017 32.9875C46.8017 34.6537 47.1298 36.3035 47.7672 37.8427C48.4045 39.382 49.3388 40.7805 50.5165 41.9583C51.6695 43.1461 53.0483 44.0914 54.5716 44.7384C56.095 45.3854 57.7322 45.7212 59.3872 45.726C61.8912 45.702 64.3328 44.941 66.4075 43.5379C68.4823 42.1347 70.0984 40.1516 71.0544 37.8357C72.0103 35.5198 72.2639 32.9735 71.7834 30.5144C71.303 28.0552 70.1097 25.792 68.3525 24.0068V24.0168ZM68.3525 24.0168C65.9781 21.6261 62.7554 20.2717 59.3872 20.249C57.7325 20.2558 56.0959 20.5925 54.5728 21.2394C53.0497 21.8863 51.6707 22.8305 50.5165 24.0168C49.3388 25.1946 48.4045 26.5931 47.7672 28.1324C47.1298 29.6716 46.8017 31.3214 46.8017 32.9875C46.8017 34.6537 47.1298 36.3035 47.7672 37.8427C48.4045 39.382 49.3388 40.7805 50.5165 41.9583C51.6695 43.1461 53.0483 44.0914 54.5716 44.7384C56.095 45.3854 57.7322 45.7212 59.3872 45.726C61.8912 45.702 64.3328 44.941 66.4075 43.5379C68.4823 42.1347 70.0984 40.1516 71.0544 37.8357C72.0103 35.5198 72.2639 32.9735 71.7834 30.5144C71.303 28.0552 70.1097 25.792 68.3525 24.0068V24.0168ZM28.4119 23.1745L24.0538 35.4246H32.6755L28.4119 23.1745ZM0.679199 0V66H124.286V0H0.679199ZM119.719 61.4149H43.1998L41.7454 57.8117L41.6059 57.4827L34.6329 40.1542H22.181C20.8263 43.3089 19.1079 47.4803 18.0072 50.336H12.5981L26.5442 15.1855H30.21L46.9851 57.4479H115.371V8.53719H9.58476V57.4628H36.66L38.2638 61.4149H5.26148V4.58506H119.719V61.4149ZM41.7454 32.9925C41.7628 28.2959 43.6083 23.7909 46.8905 20.4334C48.5234 18.7732 50.4701 17.4546 52.6173 16.5546C54.7645 15.6546 57.0692 15.1911 59.3971 15.1911C61.7251 15.1911 64.0298 15.6546 66.177 16.5546C68.3241 17.4546 70.2709 18.7732 71.9038 20.4334C75.203 23.7749 77.0532 28.2828 77.0532 32.9801C77.0532 37.6773 75.203 42.1852 71.9038 45.5267C70.2705 47.19 68.3226 48.5111 66.1736 49.4129C64.0245 50.3147 61.7175 50.7792 59.3872 50.7792C57.0568 50.7792 54.7498 50.3147 52.6008 49.4129C50.4518 48.5111 48.5038 47.19 46.8706 45.5267C43.6039 42.1708 41.7665 37.6772 41.7454 32.9925ZM95.6071 45.7908C99.8656 45.7908 104.433 43.7973 106.51 38.7538H93.6746V33.7451H112.357C112.108 36.6705 111.859 38.6042 111.421 39.7256V39.6807C109.04 46.3191 101.903 50.5802 95.6071 50.5802C85.8946 50.5802 78.568 43.2491 78.568 33.0324C78.568 22.8157 86.0441 15.4497 95.6071 15.4497C102.251 15.4497 110.275 18.8685 112.108 28.0885H106.769C105.374 22.4867 100.025 20.4334 95.6071 20.4334C88.8383 20.4334 83.5686 25.7611 83.5686 33.0473C83.5686 40.3336 88.8383 45.7908 95.6071 45.7908ZM68.3525 41.9683C70.1192 40.1867 71.3209 37.9228 71.8067 35.4605C72.2925 32.9982 72.0408 30.4472 71.0833 28.1274C70.1257 25.8077 68.5049 23.8225 66.4242 22.421C64.3434 21.0194 61.8954 20.2638 59.3872 20.249C57.7325 20.2558 56.0959 20.5925 54.5728 21.2394C53.0497 21.8863 51.6707 22.8305 50.5165 24.0168C49.3388 25.1946 48.4045 26.5931 47.7672 28.1324C47.1298 29.6716 46.8017 31.3214 46.8017 32.9875C46.8017 34.6537 47.1298 36.3035 47.7672 37.8427C48.4045 39.382 49.3388 40.7805 50.5165 41.9583C51.6695 43.1461 53.0483 44.0914 54.5716 44.7384C56.095 45.3854 57.7322 45.7212 59.3872 45.726C62.7549 45.7103 65.979 44.359 68.3525 41.9683ZM24.0538 35.4246H32.6755L28.4119 23.1745L24.0538 35.4246ZM28.4119 23.1745L24.0538 35.4246H32.6755L28.4119 23.1745ZM68.3525 24.0168C65.9781 21.6261 62.7554 20.2717 59.3872 20.249C57.7325 20.2558 56.0959 20.5925 54.5728 21.2394C53.0497 21.8863 51.6707 22.8305 50.5165 24.0168C49.3388 25.1946 48.4045 26.5931 47.7672 28.1324C47.1298 29.6716 46.8017 31.3214 46.8017 32.9875C46.8017 34.6537 47.1298 36.3035 47.7672 37.8427C48.4045 39.382 49.3388 40.7805 50.5165 41.9583C51.6695 43.1461 53.0483 44.0914 54.5716 44.7384C56.095 45.3854 57.7322 45.7212 59.3872 45.726C61.8912 45.702 64.3328 44.941 66.4075 43.5379C68.4823 42.1347 70.0984 40.1516 71.0544 37.8357C72.0103 35.5198 72.2639 32.9735 71.7834 30.5144C71.303 28.0552 70.1097 25.792 68.3525 24.0068V24.0168ZM68.3525 24.0168C65.9781 21.6261 62.7554 20.2717 59.3872 20.249C57.7325 20.2558 56.0959 20.5925 54.5728 21.2394C53.0497 21.8863 51.6707 22.8305 50.5165 24.0168C49.3388 25.1946 48.4045 26.5931 47.7672 28.1324C47.1298 29.6716 46.8017 31.3214 46.8017 32.9875C46.8017 34.6537 47.1298 36.3035 47.7672 37.8427C48.4045 39.382 49.3388 40.7805 50.5165 41.9583C51.6695 43.1461 53.0483 44.0914 54.5716 44.7384C56.095 45.3854 57.7322 45.7212 59.3872 45.726C61.8912 45.702 64.3328 44.941 66.4075 43.5379C68.4823 42.1347 70.0984 40.1516 71.0544 37.8357C72.0103 35.5198 72.2639 32.9735 71.7834 30.5144C71.303 28.0552 70.1097 25.792 68.3525 24.0068V24.0168ZM28.4119 23.1745L24.0538 35.4246H32.6755L28.4119 23.1745Z" fill="white"/>
</svg>
