<svg width="42" height="37" viewBox="0 0 42 37" fill="none" xmlns="http://www.w3.org/2000/svg">
<path d="M25.3029 7.94434C25.3029 9.09531 24.8457 10.1991 24.0318 11.013C23.2179 11.8269 22.1141 12.2841 20.9631 12.2841V12.2841" stroke="#2C5DE5" stroke-width="1.7359" stroke-miterlimit="10"/>
<path d="M27.0386 21.8312V27.9069H23.5668L13.8224 31.5879C13.4367 31.6907 13.0326 31.7035 12.6412 31.6253C12.2498 31.5471 11.8816 31.3799 11.5651 31.1368C11.2486 30.8936 10.9922 30.5809 10.8158 30.2229C10.6394 29.8649 10.5476 29.4711 10.5476 29.0719V19.6632C10.5476 18.7724 10.8217 17.9032 11.3328 17.1735C11.8439 16.4439 12.5671 15.8892 13.4043 15.5847L18.3592 14.0986V11.3962C17.8216 10.9951 17.3849 10.4743 17.0836 9.8751C16.7822 9.2759 16.6247 8.61474 16.6233 7.94404V5.52701C16.6049 4.42548 16.9944 3.35603 17.7167 2.52425C18.4391 1.69246 19.4435 1.15705 20.5367 1.02091C21.1396 0.961513 21.7483 1.029 22.3236 1.21902C22.8989 1.40905 23.428 1.71741 23.877 2.12426C24.3259 2.5311 24.6847 3.02743 24.9303 3.58129C25.1758 4.13516 25.3027 4.73431 25.3027 5.34017V7.94402C25.3013 8.61471 25.1438 9.27586 24.8424 9.87506C24.5411 10.4743 24.1044 10.9951 23.5668 11.3962V14.0986L28.5408 15.6136C29.3733 15.9207 30.0917 16.4757 30.599 17.2037C31.1064 17.9316 31.3784 18.7977 31.3784 19.685V29.0725C31.3784 29.4576 31.293 29.8379 31.1283 30.186C30.9636 30.5342 30.7237 30.8414 30.426 31.0857C30.1283 31.3299 29.78 31.5051 29.4064 31.5985C29.0328 31.692 28.6432 31.7014 28.2655 31.6261L18.6846 29.8959" stroke="#2C5DE5" stroke-width="1.7359" stroke-linecap="round" stroke-linejoin="round"/>
<path d="M14.8877 21.8311V27.0388L20.9633 25.3029H24.4351" stroke="#2C5DE5" stroke-width="1.7359" stroke-linecap="round" stroke-linejoin="round"/>
<path d="M14.0195 31.6772V35.149" stroke="#2C5DE5" stroke-width="1.7359" stroke-linecap="round" stroke-linejoin="round"/>
<path d="M27.9067 31.6772V35.149" stroke="#2C5DE5" stroke-width="1.7359" stroke-linecap="round" stroke-linejoin="round"/>
<path d="M6.20777 8.24353C6.20777 10.161 7.76215 11.7153 9.67957 11.7153C11.597 11.7153 13.1514 10.161 13.1514 8.24353V6.50763C13.1514 4.59021 11.597 3.03584 9.67957 3.03584C7.76215 3.03584 6.20777 4.59021 6.20777 6.50763L6.20777 8.24353Z" stroke="#2C5DE5" stroke-width="1.7359" stroke-miterlimit="10" stroke-linecap="round"/>
<path d="M11.4153 11.7153V13.4512L15.2516 14.8009" stroke="#2C5DE5" stroke-width="1.7359" stroke-miterlimit="10" stroke-linecap="round"/>
<path d="M7.9436 11.7153V13.4512L3.10418 15.1533C2.47967 15.4209 1.94744 15.8659 1.57341 16.4332C1.19938 17.0004 1 17.6649 1 18.3444V32.5461" stroke="#2C5DE5" stroke-width="1.7359" stroke-miterlimit="10" stroke-linecap="round"/>
<path d="M4.47168 22.999V35.1503" stroke="#2C5DE5" stroke-width="1.7359" stroke-miterlimit="10" stroke-linecap="round"/>
<path d="M35.7178 6.50793C35.7178 4.59051 34.1634 3.03613 32.246 3.03613C30.3285 3.03613 28.7742 4.59051 28.7742 6.50793V8.24383C28.7742 10.1613 30.3285 11.7156 32.246 11.7156C34.1634 11.7156 35.7178 10.1613 35.7178 8.24383V6.50793Z" stroke="#2C5DE5" stroke-width="1.7359" stroke-miterlimit="10" stroke-linecap="round"/>
<path d="M30.5102 11.7158V13.4517L26.6738 14.8014" stroke="#2C5DE5" stroke-width="1.7359" stroke-miterlimit="10" stroke-linecap="round"/>
<path d="M33.9819 11.7158V13.4517L38.8213 15.1538C39.4459 15.4214 39.9781 15.8664 40.3521 16.4337C40.7262 17.0009 40.9255 17.6654 40.9255 18.3448V32.5466" stroke="#2C5DE5" stroke-width="1.7359" stroke-miterlimit="10" stroke-linecap="round"/>
<path d="M37.4536 22.999V35.1503" stroke="#2C5DE5" stroke-width="1.7359" stroke-miterlimit="10" stroke-linecap="round"/>
</svg>
