<svg width="20" height="20" viewBox="0 0 20 20" fill="none" xmlns="http://www.w3.org/2000/svg">
<mask id="mask0" mask-type="alpha" maskUnits="userSpaceOnUse" x="0" y="0" width="20" height="20">
<path fill-rule="evenodd" clip-rule="evenodd" d="M10.0002 2.50016C5.85803 2.50016 2.50016 5.85803 2.50016 10.0002C2.50016 14.1423 5.85803 17.5002 10.0002 17.5002C14.1423 17.5002 17.5002 14.1423 17.5002 10.0002C17.5002 5.85803 14.1423 2.50016 10.0002 2.50016ZM0.833496 10.0002C0.833496 4.93755 4.93755 0.833496 10.0002 0.833496C15.0628 0.833496 19.1668 4.93755 19.1668 10.0002C19.1668 15.0628 15.0628 19.1668 10.0002 19.1668C4.93755 19.1668 0.833496 15.0628 0.833496 10.0002Z" fill="#061938"/>
<path fill-rule="evenodd" clip-rule="evenodd" d="M10.0003 5.8335C10.4606 5.8335 10.8337 6.20659 10.8337 6.66683V13.3335C10.8337 13.7937 10.4606 14.1668 10.0003 14.1668C9.54009 14.1668 9.16699 13.7937 9.16699 13.3335V6.66683C9.16699 6.20659 9.54009 5.8335 10.0003 5.8335Z" fill="#061938"/>
<path fill-rule="evenodd" clip-rule="evenodd" d="M5.8335 10.0003C5.8335 9.54009 6.20659 9.16699 6.66683 9.16699H13.3335C13.7937 9.16699 14.1668 9.54009 14.1668 10.0003C14.1668 10.4606 13.7937 10.8337 13.3335 10.8337H6.66683C6.20659 10.8337 5.8335 10.4606 5.8335 10.0003Z" fill="#061938"/>
</mask>
<g mask="url(#mask0)">
<rect width="20" height="20" fill="#2C5DE5"/>
</g>
</svg>
