<svg width="44" height="44" viewBox="0 0 44 44" fill="none" xmlns="http://www.w3.org/2000/svg">
<path d="M22.2085 4.51925C25.5995 4.5186 28.9148 5.52192 31.7364 7.40273C34.558 9.28353 36.7596 11.9576 38.0636 15.0879C39.3677 18.2181 39.7157 21.6643 39.064 24.9921C38.4122 28.3199 36.7898 31.3802 34.4013 33.7873L32.8554 32.2413L32.1523 32.9445V38.5692H37.7771L38.4802 37.8661L36.9594 36.3453C39.8533 33.4323 41.8197 29.7275 42.6107 25.6982C43.4017 21.669 42.9818 17.4957 41.4041 13.7048C39.8263 9.9139 37.1613 6.67508 33.7451 4.39685C30.3289 2.11862 26.3146 0.903004 22.2085 0.90332" stroke="#2C5DE5" stroke-width="1.80796" stroke-miterlimit="10" stroke-linecap="round"/>
<path d="M22.2084 38.8703C18.8173 38.8709 15.5021 37.8676 12.6805 35.9868C9.85885 34.106 7.65726 31.4319 6.35322 28.3017C5.04919 25.1714 4.7011 21.7252 5.35285 18.3974C6.0046 15.0696 7.627 12.0093 10.0155 9.60225L11.5615 11.1482L12.2645 10.445V4.82031H6.63976L5.93667 5.52341L7.45745 7.04419C4.56359 9.95727 2.59715 13.662 1.80615 17.6913C1.01516 21.7205 1.43502 25.8938 3.0128 29.6847C4.59057 33.4756 7.25559 36.7144 10.6717 38.9927C14.0879 41.2709 18.1022 42.4865 22.2084 42.4862" stroke="#2C5DE5" stroke-width="1.80796" stroke-miterlimit="10" stroke-linecap="round"/>
<path d="M25.2215 19.4357V17.1758H20.7016C20.1022 17.1758 19.5274 17.4139 19.1036 17.8377C18.6798 18.2615 18.4417 18.8364 18.4417 19.4357V19.4357C18.4417 20.0351 18.6798 20.6099 19.1036 21.0338C19.5274 21.4576 20.1022 21.6957 20.7016 21.6957H23.7149C24.3143 21.6957 24.8891 21.9338 25.3129 22.3576C25.7367 22.7814 25.9748 23.3563 25.9748 23.9556V23.9556C25.9748 24.555 25.7367 25.1299 25.3129 25.5537C24.8891 25.9775 24.3143 26.2156 23.7149 26.2156H19.195V23.9556" stroke="#2C5DE5" stroke-width="1.80796" stroke-miterlimit="10"/>
<path d="M22.2085 14.4629V28.9266" stroke="#2C5DE5" stroke-width="1.80796" stroke-miterlimit="10"/>
<path d="M22.2081 33.4479C28.6984 33.4479 33.9598 28.1864 33.9598 21.6961C33.9598 15.2058 28.6984 9.94434 22.2081 9.94434C15.7177 9.94434 10.4563 15.2058 10.4563 21.6961C10.4563 28.1864 15.7177 33.4479 22.2081 33.4479Z" stroke="#2C5DE5" stroke-width="1.80796" stroke-miterlimit="10"/>
<path d="M24.9223 39.7738C25.4215 39.7738 25.8263 39.3691 25.8263 38.8698C25.8263 38.3705 25.4215 37.9658 24.9223 37.9658C24.423 37.9658 24.0183 38.3705 24.0183 38.8698C24.0183 39.3691 24.423 39.7738 24.9223 39.7738Z" fill="#2C5DE5"/>
<path d="M24.9201 43.391C25.4194 43.391 25.8241 42.9862 25.8241 42.487C25.8241 41.9877 25.4194 41.583 24.9201 41.583C24.4208 41.583 24.0161 41.9877 24.0161 42.487C24.0161 42.9862 24.4208 43.391 24.9201 43.391Z" fill="#2C5DE5"/>
<path d="M19.4982 1.80796C19.9975 1.80796 20.4022 1.40324 20.4022 0.903982C20.4022 0.404727 19.9975 0 19.4982 0C18.999 0 18.5942 0.404727 18.5942 0.903982C18.5942 1.40324 18.999 1.80796 19.4982 1.80796Z" fill="#2C5DE5"/>
<path d="M19.496 5.4232C19.9953 5.4232 20.4 5.01847 20.4 4.51922C20.4 4.01996 19.9953 3.61523 19.496 3.61523C18.9968 3.61523 18.592 4.01996 18.592 4.51922C18.592 5.01847 18.9968 5.4232 19.496 5.4232Z" fill="#2C5DE5"/>
</svg>
