<svg width="41" height="41" viewBox="0 0 41 41" fill="none" xmlns="http://www.w3.org/2000/svg">
<path d="M7.45481 28.8862C5.39922 28.8862 3.72754 30.5579 3.72754 32.6135C3.72754 34.6691 5.39922 36.3408 7.45481 36.3408C9.5104 36.3408 11.1821 34.6691 11.1821 32.6135C11.1821 30.5579 9.5104 28.8862 7.45481 28.8862ZM7.45481 34.4771C6.42702 34.4771 5.59118 33.6413 5.59118 32.6135C5.59118 31.5857 6.42702 30.7499 7.45481 30.7499C8.48261 30.7499 9.31845 31.5857 9.31845 32.6135C9.31845 33.6413 8.48261 34.4771 7.45481 34.4771Z" fill="white"/>
<path d="M7.45481 28.8862C5.39922 28.8862 3.72754 30.5579 3.72754 32.6135C3.72754 34.6691 5.39922 36.3408 7.45481 36.3408C9.5104 36.3408 11.1821 34.6691 11.1821 32.6135C11.1821 30.5579 9.5104 28.8862 7.45481 28.8862ZM7.45481 34.4771C6.42702 34.4771 5.59118 33.6413 5.59118 32.6135C5.59118 31.5857 6.42702 30.7499 7.45481 30.7499C8.48261 30.7499 9.31845 31.5857 9.31845 32.6135C9.31845 33.6413 8.48261 34.4771 7.45481 34.4771Z" fill="url(#paint0_linear)"/>
<path d="M10.2503 6.52246H4.65936C4.14406 6.52246 3.72754 6.93898 3.72754 7.45428C3.72754 7.96957 4.14406 8.3861 4.65936 8.3861H10.2503C10.7656 8.3861 11.1821 7.96957 11.1821 7.45428C11.1821 6.93898 10.7656 6.52246 10.2503 6.52246Z" fill="white"/>
<path d="M10.2503 6.52246H4.65936C4.14406 6.52246 3.72754 6.93898 3.72754 7.45428C3.72754 7.96957 4.14406 8.3861 4.65936 8.3861H10.2503C10.7656 8.3861 11.1821 7.96957 11.1821 7.45428C11.1821 6.93898 10.7656 6.52246 10.2503 6.52246Z" fill="url(#paint1_linear)"/>
<path d="M10.2503 10.25H4.65936C4.14406 10.25 3.72754 10.6665 3.72754 11.1818C3.72754 11.6971 4.14406 12.1136 4.65936 12.1136H10.2503C10.7656 12.1136 11.1821 11.6971 11.1821 11.1818C11.1821 10.6665 10.7656 10.25 10.2503 10.25Z" fill="white"/>
<path d="M10.2503 10.25H4.65936C4.14406 10.25 3.72754 10.6665 3.72754 11.1818C3.72754 11.6971 4.14406 12.1136 4.65936 12.1136H10.2503C10.7656 12.1136 11.1821 11.6971 11.1821 11.1818C11.1821 10.6665 10.7656 10.25 10.2503 10.25Z" fill="url(#paint2_linear)"/>
<path d="M10.2503 13.9775H4.65936C4.14406 13.9775 3.72754 14.3941 3.72754 14.9094C3.72754 15.4247 4.14406 15.8412 4.65936 15.8412H10.2503C10.7656 15.8412 11.1821 15.4247 11.1821 14.9094C11.1821 14.3941 10.7656 13.9775 10.2503 13.9775Z" fill="white"/>
<path d="M10.2503 13.9775H4.65936C4.14406 13.9775 3.72754 14.3941 3.72754 14.9094C3.72754 15.4247 4.14406 15.8412 4.65936 15.8412H10.2503C10.7656 15.8412 11.1821 15.4247 11.1821 14.9094C11.1821 14.3941 10.7656 13.9775 10.2503 13.9775Z" fill="url(#paint3_linear)"/>
<path d="M25.1591 0.931818C25.1591 0.416523 24.7426 0 24.2273 0H15.8409C14.2997 0 13.0455 1.25423 13.0455 2.79545V38.2045C13.0455 38.7189 12.628 39.1364 12.1136 39.1364H2.79545C2.28109 39.1364 1.86364 38.7189 1.86364 38.2045V2.79545C1.86364 2.28109 2.28109 1.86364 2.79545 1.86364H10.25C10.7653 1.86364 11.1818 1.44711 11.1818 0.931818C11.1818 0.416523 10.7653 0 10.25 0H2.79545C1.25423 0 0 1.25423 0 2.79545V38.2045C0 39.7458 1.25423 41 2.79545 41H12.1136C13.6549 41 14.9091 39.7458 14.9091 38.2045V2.79545C14.9091 2.28109 15.3265 1.86364 15.8409 1.86364H24.2273C24.7426 1.86364 25.1591 1.44711 25.1591 0.931818Z" fill="white"/>
<path d="M25.1591 0.931818C25.1591 0.416523 24.7426 0 24.2273 0H15.8409C14.2997 0 13.0455 1.25423 13.0455 2.79545V38.2045C13.0455 38.7189 12.628 39.1364 12.1136 39.1364H2.79545C2.28109 39.1364 1.86364 38.7189 1.86364 38.2045V2.79545C1.86364 2.28109 2.28109 1.86364 2.79545 1.86364H10.25C10.7653 1.86364 11.1818 1.44711 11.1818 0.931818C11.1818 0.416523 10.7653 0 10.25 0H2.79545C1.25423 0 0 1.25423 0 2.79545V38.2045C0 39.7458 1.25423 41 2.79545 41H12.1136C13.6549 41 14.9091 39.7458 14.9091 38.2045V2.79545C14.9091 2.28109 15.3265 1.86364 15.8409 1.86364H24.2273C24.7426 1.86364 25.1591 1.44711 25.1591 0.931818Z" fill="url(#paint4_linear)"/>
<path d="M20.4997 28.8862C18.4441 28.8862 16.7725 30.5579 16.7725 32.6135C16.7725 34.6691 18.4441 36.3408 20.4997 36.3408C22.5553 36.3408 24.227 34.6691 24.227 32.6135C24.227 30.5579 22.5553 28.8862 20.4997 28.8862ZM20.4997 34.4771C19.4719 34.4771 18.6361 33.6413 18.6361 32.6135C18.6361 31.5857 19.4719 30.7499 20.4997 30.7499C21.5275 30.7499 22.3634 31.5857 22.3634 32.6135C22.3634 33.6413 21.5275 34.4771 20.4997 34.4771Z" fill="white"/>
<path d="M20.4997 28.8862C18.4441 28.8862 16.7725 30.5579 16.7725 32.6135C16.7725 34.6691 18.4441 36.3408 20.4997 36.3408C22.5553 36.3408 24.227 34.6691 24.227 32.6135C24.227 30.5579 22.5553 28.8862 20.4997 28.8862ZM20.4997 34.4771C19.4719 34.4771 18.6361 33.6413 18.6361 32.6135C18.6361 31.5857 19.4719 30.7499 20.4997 30.7499C21.5275 30.7499 22.3634 31.5857 22.3634 32.6135C22.3634 33.6413 21.5275 34.4771 20.4997 34.4771Z" fill="url(#paint5_linear)"/>
<path d="M23.2952 6.52246H17.7043C17.189 6.52246 16.7725 6.93898 16.7725 7.45428C16.7725 7.96957 17.189 8.3861 17.7043 8.3861H23.2952C23.8105 8.3861 24.227 7.96957 24.227 7.45428C24.227 6.93898 23.8105 6.52246 23.2952 6.52246Z" fill="white"/>
<path d="M23.2952 6.52246H17.7043C17.189 6.52246 16.7725 6.93898 16.7725 7.45428C16.7725 7.96957 17.189 8.3861 17.7043 8.3861H23.2952C23.8105 8.3861 24.227 7.96957 24.227 7.45428C24.227 6.93898 23.8105 6.52246 23.2952 6.52246Z" fill="url(#paint6_linear)"/>
<path d="M23.2952 10.25H17.7043C17.189 10.25 16.7725 10.6665 16.7725 11.1818C16.7725 11.6971 17.189 12.1136 17.7043 12.1136H23.2952C23.8105 12.1136 24.227 11.6971 24.227 11.1818C24.227 10.6665 23.8105 10.25 23.2952 10.25Z" fill="white"/>
<path d="M23.2952 10.25H17.7043C17.189 10.25 16.7725 10.6665 16.7725 11.1818C16.7725 11.6971 17.189 12.1136 17.7043 12.1136H23.2952C23.8105 12.1136 24.227 11.6971 24.227 11.1818C24.227 10.6665 23.8105 10.25 23.2952 10.25Z" fill="url(#paint7_linear)"/>
<path d="M23.2952 13.9775H17.7043C17.189 13.9775 16.7725 14.3941 16.7725 14.9094C16.7725 15.4247 17.189 15.8412 17.7043 15.8412H23.2952C23.8105 15.8412 24.227 15.4247 24.227 14.9094C24.227 14.3941 23.8105 13.9775 23.2952 13.9775Z" fill="white"/>
<path d="M23.2952 13.9775H17.7043C17.189 13.9775 16.7725 14.3941 16.7725 14.9094C16.7725 15.4247 17.189 15.8412 17.7043 15.8412H23.2952C23.8105 15.8412 24.227 15.4247 24.227 14.9094C24.227 14.3941 23.8105 13.9775 23.2952 13.9775Z" fill="url(#paint8_linear)"/>
<path d="M38.2043 0H28.8861C27.3449 0 26.0906 1.25423 26.0906 2.79545V5.59091V38.2045C26.0906 38.7189 25.6732 39.1364 25.1588 39.1364H17.7043C17.189 39.1364 16.7725 39.5529 16.7725 40.0682C16.7725 40.5835 17.189 41 17.7043 41H25.1588C26.7001 41 27.9543 39.7458 27.9543 38.2045V5.59091V2.79545C27.9543 2.28109 28.3717 1.86364 28.8861 1.86364H38.2043C38.7186 1.86364 39.1361 2.28109 39.1361 2.79545V38.2045C39.1361 38.7189 38.7186 39.1364 38.2043 39.1364H30.7497C30.2344 39.1364 29.8179 39.5529 29.8179 40.0682C29.8179 40.5835 30.2344 41 30.7497 41H38.2043C39.7455 41 40.9997 39.7458 40.9997 38.2045V2.79545C40.9997 1.25423 39.7455 0 38.2043 0Z" fill="white"/>
<path d="M38.2043 0H28.8861C27.3449 0 26.0906 1.25423 26.0906 2.79545V5.59091V38.2045C26.0906 38.7189 25.6732 39.1364 25.1588 39.1364H17.7043C17.189 39.1364 16.7725 39.5529 16.7725 40.0682C16.7725 40.5835 17.189 41 17.7043 41H25.1588C26.7001 41 27.9543 39.7458 27.9543 38.2045V5.59091V2.79545C27.9543 2.28109 28.3717 1.86364 28.8861 1.86364H38.2043C38.7186 1.86364 39.1361 2.28109 39.1361 2.79545V38.2045C39.1361 38.7189 38.7186 39.1364 38.2043 39.1364H30.7497C30.2344 39.1364 29.8179 39.5529 29.8179 40.0682C29.8179 40.5835 30.2344 41 30.7497 41H38.2043C39.7455 41 40.9997 39.7458 40.9997 38.2045V2.79545C40.9997 1.25423 39.7455 0 38.2043 0Z" fill="url(#paint9_linear)"/>
<path d="M33.5456 36.3408C35.6012 36.3408 37.2729 34.6691 37.2729 32.6135C37.2729 30.5579 35.6012 28.8862 33.5456 28.8862C31.49 28.8862 29.8184 30.5579 29.8184 32.6135C29.8184 34.6691 31.49 36.3408 33.5456 36.3408ZM33.5456 30.7499C34.5734 30.7499 35.4093 31.5857 35.4093 32.6135C35.4093 33.6413 34.5734 34.4771 33.5456 34.4771C32.5178 34.4771 31.682 33.6413 31.682 32.6135C31.682 31.5857 32.5178 30.7499 33.5456 30.7499Z" fill="white"/>
<path d="M33.5456 36.3408C35.6012 36.3408 37.2729 34.6691 37.2729 32.6135C37.2729 30.5579 35.6012 28.8862 33.5456 28.8862C31.49 28.8862 29.8184 30.5579 29.8184 32.6135C29.8184 34.6691 31.49 36.3408 33.5456 36.3408ZM33.5456 30.7499C34.5734 30.7499 35.4093 31.5857 35.4093 32.6135C35.4093 33.6413 34.5734 34.4771 33.5456 34.4771C32.5178 34.4771 31.682 33.6413 31.682 32.6135C31.682 31.5857 32.5178 30.7499 33.5456 30.7499Z" fill="url(#paint10_linear)"/>
<path d="M30.7502 8.3861H36.3411C36.8564 8.3861 37.2729 7.96957 37.2729 7.45428C37.2729 6.93898 36.8564 6.52246 36.3411 6.52246H30.7502C30.2349 6.52246 29.8184 6.93898 29.8184 7.45428C29.8184 7.96957 30.2349 8.3861 30.7502 8.3861Z" fill="white"/>
<path d="M30.7502 8.3861H36.3411C36.8564 8.3861 37.2729 7.96957 37.2729 7.45428C37.2729 6.93898 36.8564 6.52246 36.3411 6.52246H30.7502C30.2349 6.52246 29.8184 6.93898 29.8184 7.45428C29.8184 7.96957 30.2349 8.3861 30.7502 8.3861Z" fill="url(#paint11_linear)"/>
<path d="M30.7502 12.1136H36.3411C36.8564 12.1136 37.2729 11.6971 37.2729 11.1818C37.2729 10.6665 36.8564 10.25 36.3411 10.25H30.7502C30.2349 10.25 29.8184 10.6665 29.8184 11.1818C29.8184 11.6971 30.2349 12.1136 30.7502 12.1136Z" fill="white"/>
<path d="M30.7502 12.1136H36.3411C36.8564 12.1136 37.2729 11.6971 37.2729 11.1818C37.2729 10.6665 36.8564 10.25 36.3411 10.25H30.7502C30.2349 10.25 29.8184 10.6665 29.8184 11.1818C29.8184 11.6971 30.2349 12.1136 30.7502 12.1136Z" fill="url(#paint12_linear)"/>
<path d="M30.7502 15.8412H36.3411C36.8564 15.8412 37.2729 15.4247 37.2729 14.9094C37.2729 14.3941 36.8564 13.9775 36.3411 13.9775H30.7502C30.2349 13.9775 29.8184 14.3941 29.8184 14.9094C29.8184 15.4247 30.2349 15.8412 30.7502 15.8412Z" fill="white"/>
<path d="M30.7502 15.8412H36.3411C36.8564 15.8412 37.2729 15.4247 37.2729 14.9094C37.2729 14.3941 36.8564 13.9775 36.3411 13.9775H30.7502C30.2349 13.9775 29.8184 14.3941 29.8184 14.9094C29.8184 15.4247 30.2349 15.8412 30.7502 15.8412Z" fill="url(#paint13_linear)"/>
<defs>
<linearGradient id="paint0_linear" x1="7.45481" y1="28.8862" x2="7.45481" y2="36.3408" gradientUnits="userSpaceOnUse">
<stop stop-color="white"/>
<stop offset="1" stop-color="white" stop-opacity="0"/>
</linearGradient>
<linearGradient id="paint1_linear" x1="7.45481" y1="6.52246" x2="7.45481" y2="8.3861" gradientUnits="userSpaceOnUse">
<stop stop-color="white"/>
<stop offset="1" stop-color="white" stop-opacity="0"/>
</linearGradient>
<linearGradient id="paint2_linear" x1="7.45481" y1="10.25" x2="7.45481" y2="12.1136" gradientUnits="userSpaceOnUse">
<stop stop-color="white"/>
<stop offset="1" stop-color="white" stop-opacity="0"/>
</linearGradient>
<linearGradient id="paint3_linear" x1="7.45481" y1="13.9775" x2="7.45481" y2="15.8412" gradientUnits="userSpaceOnUse">
<stop stop-color="white"/>
<stop offset="1" stop-color="white" stop-opacity="0"/>
</linearGradient>
<linearGradient id="paint4_linear" x1="12.5795" y1="0" x2="12.5795" y2="41" gradientUnits="userSpaceOnUse">
<stop stop-color="white"/>
<stop offset="1" stop-color="white" stop-opacity="0"/>
</linearGradient>
<linearGradient id="paint5_linear" x1="20.4997" y1="28.8862" x2="20.4997" y2="36.3408" gradientUnits="userSpaceOnUse">
<stop stop-color="white"/>
<stop offset="1" stop-color="white" stop-opacity="0"/>
</linearGradient>
<linearGradient id="paint6_linear" x1="20.4997" y1="6.52246" x2="20.4997" y2="8.3861" gradientUnits="userSpaceOnUse">
<stop stop-color="white"/>
<stop offset="1" stop-color="white" stop-opacity="0"/>
</linearGradient>
<linearGradient id="paint7_linear" x1="20.4997" y1="10.25" x2="20.4997" y2="12.1136" gradientUnits="userSpaceOnUse">
<stop stop-color="white"/>
<stop offset="1" stop-color="white" stop-opacity="0"/>
</linearGradient>
<linearGradient id="paint8_linear" x1="20.4997" y1="13.9775" x2="20.4997" y2="15.8412" gradientUnits="userSpaceOnUse">
<stop stop-color="white"/>
<stop offset="1" stop-color="white" stop-opacity="0"/>
</linearGradient>
<linearGradient id="paint9_linear" x1="28.8861" y1="0" x2="28.8861" y2="41" gradientUnits="userSpaceOnUse">
<stop stop-color="white"/>
<stop offset="1" stop-color="white" stop-opacity="0"/>
</linearGradient>
<linearGradient id="paint10_linear" x1="33.5456" y1="28.8862" x2="33.5456" y2="36.3408" gradientUnits="userSpaceOnUse">
<stop stop-color="white"/>
<stop offset="1" stop-color="white" stop-opacity="0"/>
</linearGradient>
<linearGradient id="paint11_linear" x1="33.5456" y1="6.52246" x2="33.5456" y2="8.3861" gradientUnits="userSpaceOnUse">
<stop stop-color="white"/>
<stop offset="1" stop-color="white" stop-opacity="0"/>
</linearGradient>
<linearGradient id="paint12_linear" x1="33.5456" y1="10.25" x2="33.5456" y2="12.1136" gradientUnits="userSpaceOnUse">
<stop stop-color="white"/>
<stop offset="1" stop-color="white" stop-opacity="0"/>
</linearGradient>
<linearGradient id="paint13_linear" x1="33.5456" y1="13.9775" x2="33.5456" y2="15.8412" gradientUnits="userSpaceOnUse">
<stop stop-color="white"/>
<stop offset="1" stop-color="white" stop-opacity="0"/>
</linearGradient>
</defs>
</svg>
